<svg class="svg-app-icon-set">
  <defs>
    <g id="Open_New_Win">
      <path d="M1843.2 792H204.8C91.7 792 0 883.7 0 996.8v1638.4C0 2748.3 91.7 2840 204.8 2840h1638.4 c113.1 0 204.8-91.7 204.8-204.8V996.8C2048 883.7 1956.3 792 1843.2 792z M204.8 996.8h204.8v204.8H204.8V996.8z M1843.2 2635.2 H204.8V1406.4h1638.4V2635.2z"/>
      <path d="M1565.8 1611.2h-508.6c-80.3 0-99.4 46-42.6 102.7l167.7 167.7l-293.2 293.2 c-25.6 25.6-25.6 67.2 0 92.8l92.8 92.8c25.6 25.6 67.2 25.6 92.8 0l293.3-293.3l167.7 167.7c56.8 56.8 102.8 37.8 102.8-42.6 v-508.5C1638.4 1643.6 1605.9 1611.2 1565.8 1611.2z"/>
    </g>
    <g id="Anomaly">
      <path fill-rule="evenodd" d="M4.55157358,0.395224094 C4.79874096,-0.0991945206 5.19853895,-0.101209164 5.44679767,0.395224094 L9.80231205,9.10477591 C10.0495633,9.59919452 9.79882812,10 9.24321586,10 L0.756784141,10 C0.200752614,10 -0.0506383948,9.60120916 0.197536142,9.10477591 L4.55157358,0.395224094 Z"/>
    </g>
    <g id="Constrained">
      <path d="M8.46410162,7 C9.56867111,5.08682951 8.91317049,2.64046788 7,1.53589838 C6.65893701,1.33898557 6.29655673,1.19531749 5.92151806,1.1063799 C5.5994878,1.03001286 5.26987431,0.994448103 4.93979853,0.999767612 C4.65977319,1.00428051 4.38076161,1.03820728 4.10760384,1.10079745 C3.83843712,1.16247314 3.57023636,0.994268422 3.50856068,0.725101706 C3.446885,0.455934989 3.61508971,0.187734232 3.88425643,0.126058548 C4.22532145,0.0479084011 4.57378585,0.0055364265 4.92368459,-0.00010254998 C5.33654849,-0.00675627417 5.74909062,0.0377563516 6.15226114,0.133365191 C6.62151832,0.244645985 7.07462802,0.424284353 7.5,0.669872981 C9.89146312,2.05058486 10.7108389,5.10853688 9.33012702,7.5 L9.76713298,7.75230551 C10.0040739,7.8891034 9.99161191,8.09849624 9.74491199,8.2172943 L8.24835627,8.93795895 C7.99914307,9.05796727 7.78014584,8.92886785 7.75967801,8.65582042 L7.63551404,6.99943283 C7.6148377,6.72360369 7.78492345,6.6078763 8.02709566,6.74769449 L8.46410162,7 L8.46410162,7 Z M1.53589838,3 C0.431328885,4.91317049 1.08682951,7.35953212 3,8.46410162 C3.34106299,8.66101443 3.70344327,8.80468251 4.07848194,8.8936201 C4.4005122,8.96998714 4.73012569,9.0055519 5.06020147,9.00023239 C5.34022681,8.99571949 5.61923839,8.96179272 5.89239616,8.89920255 C6.16156288,8.83752686 6.42976364,9.00573158 6.49143932,9.27489829 C6.553115,9.54406501 6.38491029,9.81226577 6.11574357,9.87394145 C5.77467855,9.9520916 5.42621415,9.99446357 5.07631541,10.0001025 C4.66345151,10.0067563 4.25090938,9.96224365 3.84773886,9.86663481 C3.37848168,9.75535402 2.92537198,9.57571565 2.5,9.33012702 C0.108536883,7.94941514 -0.710838893,4.89146312 0.669872981,2.5 L0.232867023,2.24769449 C-0.00930518877,2.1078763 0.00577171639,1.90265451 0.254857765,1.78257277 L1.75064988,1.06146725 C1.99722392,0.942596522 2.21852464,1.06770323 2.23932814,1.34360578 L2.36425571,3.00043424 C2.38484942,3.27355435 2.20984524,3.3891034 1.97290434,3.25230551 L1.53589838,3 L1.53589838,3 Z M3.5,3.5 L6.5,3.5 L6.5,6.5 L3.5,6.5 L3.5,3.5 Z"/>
    </g>
    <g id="Ctrl_Alt_Del">
      <path d="M1299.4 792H748.6c-104.9 0-190 85.1-190 190v550.9c0 104.9 85.1 190 190 190h550.9 c104.9 0 190-85.1 190-190V982C1489.5 877.1 1404.4 792 1299.4 792z M1047.6 1387.6c43.2 0 81.6-29.7 96.5-65.4l99.8 47.2 c-29 58-87.7 120.7-196.3 120.7c-138.3 0-243.5-94.4-243.5-232.7c0-139 105.2-232.7 243.5-232.7c108.6 0 166.6 61.4 196.3 120.7 l-99.8 47.2c-14.8-35.8-53.3-65.4-96.5-65.4c-73.5 0-125.5 56.7-125.5 130.2C922.1 1331 974.1 1387.6 1047.6 1387.6z"/>
      <polygon points="405.8,2435.6 524.4,2435.6 465.1,2260.4"/>
      <path d="M740.9 1909.1H190c-104.9 0-190 85.1-190 190V2650c0 104.9 85.1 190 190 190h550.9 c104.9 0 190-85.1 190-190v-550.9C930.9 1994.2 845.8 1909.1 740.9 1909.1z M580.2 2607.3l-23-67H373.7l-23 67H214.6l175.2-465.5 h150.7l175.9 465.5H580.2z"/>
      <path d="M1555 2246.5h-76.1v256.1h75.4c81.6 0 129.1-59.3 129.1-128.4C1683.4 2302.3 1640.1 2246.5 1555 2246.5z"/>
      <path d="M1858 1909.1h-550.9c-104.9 0-190 85.1-190 190V2650c0 104.9 85.1 190 190 190H1858 c104.9 0 190-85.1 190-190v-550.9C2048 1994.2 1962.9 1909.1 1858 1909.1z M1555 2607.3h-196.1v-465.5h195.4 c146.5 0 251.9 87.9 251.9 232.4C1806.2 2518.6 1700.8 2607.3 1555 2607.3z"/>
    </g>
    <g id="Keyboard">
      <path d="M1907.8 1048H140.2C62.8 1048 0 1110.8 0 1188.2v1255.6c0 77.4 62.8 140.2 140.2 140.2h1767.6 c77.4 0 140.2-62.8 140.2-140.2V1188.2C2048 1110.8 1985.2 1048 1907.8 1048z M1024 1389.3h170.7V1560H1024V1389.3z M1024 1730.7 h170.7v170.7H1024V1730.7z M682.7 1389.3h170.7V1560H682.7V1389.3z M682.7 1730.7h170.7v170.7H682.7V1730.7z M341.3 1389.3H512 V1560H341.3V1389.3z M341.3 1730.7H512v170.7H341.3V1730.7z M1365.3 2242.7h-1024V2072h1024V2242.7z M1706.7 2242.7H1536V2072 h170.7V2242.7z M1706.7 1901.3h-341.3v-170.7h341.3V1901.3z M1706.7 1560h-341.3v-170.7h341.3V1560z"/>
    </g>
    <g id="Filter">
      <path d="M819.2 2840l409.6-409.6V1816l750.9-750.9c100.8-100.8 29.4-273.1-113.1-273.1H181.5 C38.9 792-32.5 964.3 68.3 1065.1L819.2 1816V2840z"/>
    </g>
    <g id="Storage">
      <path d="M1768.7 2840H279.3c-102.8 0-186.2-83.4-186.2-186.2v-186.2 c0-102.8 83.4-186.2 186.2-186.2h1489.5c102.8 0 186.2 83.4 186.2 186.2v186.2C1954.9 2756.6 1871.5 2840 1768.7 2840z M1582.5 2467.6h-186.2v186.2h186.2V2467.6z M1768.7 2095.3H279.3c-102.8 0-186.2-83.4-186.2-186.2v-186.2 c0-102.8 83.4-186.2 186.2-186.2h1489.5c102.8 0 186.2 83.4 186.2 186.2v186.2C1954.9 2011.9 1871.5 2095.3 1768.7 2095.3z M1582.5 1722.9h-186.2v186.2h186.2V1722.9z M1768.7 1350.5H279.3c-102.8 0-186.2-83.4-186.2-186.2V978.2 c0-102.8 83.4-186.2 186.2-186.2h1489.5c102.8 0 186.2 83.4 186.2 186.2v186.2C1954.9 1267.1 1871.5 1350.5 1768.7 1350.5z M1582.5 978.2h-186.2v186.2h186.2V978.2z"/>
    </g>
    <g id="CPU">
      <path d="M1890.5 2209.8v-787.7H2048v787.7H1890.5z M1417.8 2523.3H630.2 c-174.1 0-315.1-141-315.1-315.1v-787.7c0-174.1 141-315.1 315.1-315.1h787.7c174.1 0 315.1 141 315.1 315.1v787.7 C1732.9 2382.4 1591.9 2523.3 1417.8 2523.3z M1417.8 1422.2H630.2v787.7h787.7V1422.2z M1260.3 2052.3H787.7v-472.6h472.6V2052.3z M630.2 792h787.7v157.5H630.2V792z M0 1422.2h157.5v787.7H0V1422.2z M1417.8 2840H630.2v-157.5h787.7V2840z"/>
    </g>
    <g id="Memory">
      <path d="M1890.5 2052.3H157.5c-87 0-157.5-70.6-157.5-157.5v-472.6c0-87 70.6-157.5 157.5-157.5 h1732.9c87 0 157.5 70.6 157.5 157.5v472.6C2048 1981.7 1977.4 2052.3 1890.5 2052.3z M472.6 1579.7H315.1v315.1h157.5V1579.7z M787.7 1579.7H630.2v315.1h157.5V1579.7z M1102.8 1579.7H945.2v315.1h157.5V1579.7z M1417.8 1579.7h-157.5v315.1h157.5V1579.7z M1732.9 1579.7h-157.5v315.1h157.5V1579.7z M315.1 2367.4H157.5v-157.5h157.5V2367.4z M630.2 2367.4H472.6v-157.5h157.5V2367.4z M945.2 2367.4H787.7v-157.5h157.5V2367.4z M1260.3 2367.4h-157.5v-157.5h157.5V2367.4z M1575.4 2367.4h-157.5v-157.5h157.5V2367.4 z M1890.5 2367.4h-157.5v-157.5h157.5V2367.4z"/>
    </g>
    <g id="Clock">
      <path d="M1024 1048c423.5 0 768 344.5 768 768s-344.5 768-768 768s-768-344.5-768-768S600.5 1048 1024 1048 M1024 792C458.5 792 0 1250.5 0 1816c0 565.5 458.5 1024 1024 1024c565.5 0 1024-458.5 1024-1024C2048 1250.5 1589.5 792 1024 792 L1024 792z"/>
      <path d="M1152 1688v-384c0-47.1-38.2-85.3-85.3-85.3h-85.3c-47.1 0-85.3 38.2-85.3 85.3v640h469.3 c47.1 0 85.3-38.2 85.3-85.3v-85.3c0-47.1-38.2-85.3-85.3-85.3H1152z"/>
    </g>
    <g id="Power">
      <path d="M1723.8 1150.6c-58.8-58.7-153.9-58.7-212.7 0c-58.8 58.7-58.8 154 0 212.7l0 0 c134.7 134.9 201.6 310.3 201.8 487.1c-0.1 176.8-67 352.2-201.8 487.1c-134.9 134.8-310.3 201.6-487.1 201.8 c-176.8-0.2-352.2-67-487-201.8c-134.8-134.9-201.6-310.3-201.8-487.1c0.2-176.8 67-352.2 201.8-487.1c58.8-58.7 58.8-154 0-212.7 c-58.7-58.8-153.9-58.8-212.7 0c-193 192.8-290.1 447-289.9 699.8c-0.2 252.8 96.9 506.9 289.9 699.8 c192.8 193 446.9 290 699.7 289.9h0.7c252.6 0 506.4-97 699.1-289.9c193-192.9 290.1-447 289.8-699.8 C2013.9 1597.6 1916.8 1343.4 1723.8 1150.6z M1024.1 2000.8c83 0 150.4-67.4 150.4-150.4V942.4c0-83-67.4-150.4-150.4-150.4 c-83.1 0-150.5 67.4-150.5 150.4v907.9C873.6 1933.4 941 2000.8 1024.1 2000.8z"/>
    </g>
    <g id="Pause">
      <path d="M682.7 2584h-256c-47.1 0-85.3-38.2-85.3-85.3V1133.3c0-47.1 38.2-85.3 85.3-85.3h256 c47.1 0 85.3 38.2 85.3 85.3v1365.3C768 2545.8 729.8 2584 682.7 2584z"/>
      <path d="M1621.3 2584h-256c-47.1 0-85.3-38.2-85.3-85.3V1133.3c0-47.1 38.2-85.3 85.3-85.3h256 c47.1 0 85.3 38.2 85.3 85.3v1365.3C1706.7 2545.8 1668.5 2584 1621.3 2584z"/>
    </g>
    <g id="Play">
      <path d="M1929.4 2022.4l-1348 784.9c-159.2 92.7-358.9-22.2-358.9-206.4V1031.1c0-184.2 199.7-299 358.9-206.4 l1348 784.9C2087.5 1701.8 2087.5 1930.3 1929.4 2022.4z"/>
    </g>
    <g id="Refresh">
      <g>
          <path fill-rule="evenodd" clip-rule="evenodd" d="M1757.1 1813.7c-81 0-146.6 65.6-146.6 146.6v146.6 c-65.9 252.5-304.4 439.8-579.5 439.8c-326.4 0-591.1-262.6-591.1-586.4s257.7-586.4 584.1-586.4v149.5 c0 59.1 35.8 112.6 90.5 135.1c11.2 4.6 22.8 6.8 34.4 8.5h45.8c29.5-4.9 57.5-18.2 79.6-40.2l293.2-292.6 c28.6-28.6 43-66 43-103.4c0-37.4-14.3-74.9-43-103.4l-293.2-292.6c-41.9-41.9-104.9-54.4-159.8-31.7 c-54.7 22.6-90.5 76-90.5 135.1v142.4c-489.6 0-879.7 393.8-879.7 879.7S541.3 2840 1030.9 2840c434 0 791.6-310.6 868-719.2 c1.5 0.5 4.7-160.5 4.7-160.5C1903.7 1879.4 1838 1813.7 1757.1 1813.7z"/>
      </g>
    </g>
    <g id="Task">
      <path d="M1706.7 962.7v1706.7H341.3V962.7H1706.7 M1706.7 792H341.3 c-94.3 0-170.7 76.4-170.7 170.7v1706.7c0 94.3 76.4 170.7 170.7 170.7h1365.3c94.3 0 170.7-76.4 170.7-170.7V962.7 C1877.3 868.4 1800.9 792 1706.7 792L1706.7 792z"/>
      <path d="M1295.1 1133.3H753c-38.8 0-70.3-31.5-70.3-70.3V962.7h682.7v100.4 C1365.3 1101.9 1333.9 1133.3 1295.1 1133.3z"/>
      <path d="M1487.5 1655.2c7.8-7.8 7.8-21 0-28.8l-136.5-140.2c-7.3-7.8-20.6-7.8-27.9 0 l-416.1 427.7l-181.6-192.9c-7.3-7.8-20.6-7.8-27.9 0l-137 146.1c-7.3 7.8-7.8 21 0 28.8l332.3 340.9c4.6 3.7 8.7 6 14.3 6 c5.5 0 9.7-2.3 14.3-6L1487.5 1655.2z"/>
    </g>
    <g id="Clone">
      <path d="M512 1645.3c0-188.5 152.8-341.3 341.3-341.3H1280c47.1 0 85.3-38.2 85.3-85.3v-256 c0-94.3-76.4-170.7-170.7-170.7h-1024C76.4 792 0 868.4 0 962.7v1024c0 94.3 76.4 170.7 170.7 170.7h256 c47.1 0 85.3-38.2 85.3-85.3V1645.3z"/>
      <path d="M1877.3 2840h-1024c-94.3 0-170.7-76.4-170.7-170.7v-1024c0-94.3 76.4-170.7 170.7-170.7 h1024c94.3 0 170.7 76.4 170.7 170.7v1024C2048 2763.6 1971.6 2840 1877.3 2840z"/>
    </g>
    <g id="Console">
      <path d="M1877.3 962.7H170.7C76.4 962.7 0 1039.1 0 1133.3v1365.3c0 94.3 76.4 170.7 170.7 170.7 h1706.7c94.3 0 170.7-76.4 170.7-170.7V1133.3C2048 1039.1 1971.6 962.7 1877.3 962.7z M657.7 1620.3L487 1791 c-16.7 16.7-38.5 25-60.3 25s-43.7-8.3-60.3-25c-33.3-33.3-33.3-87.3 0-120.7L476.7 1560l-110.3-110.3 c-33.3-33.3-33.3-87.3 0-120.7s87.3-33.3 120.7 0l170.7 170.7C691 1533 691 1587 657.7 1620.3z M1194.7 1816h-256 c-47.1 0-85.3-38.2-85.3-85.3c0-47.1 38.2-85.3 85.3-85.3h256c47.1 0 85.3 38.2 85.3 85.3C1280 1777.8 1241.8 1816 1194.7 1816z"/>
    </g>
    <g id="Analyze">
      <path d="M341.3 2498.7V1048c0-47.1-38.2-85.3-85.3-85.3h0c-47.1 0-85.3 38.2-85.3 85.3v1450.7 v85.3c0 47.1 38.2 85.3 85.3 85.3h85.3H1792c47.1 0 85.3-38.2 85.3-85.3l0 0c0-47.1-38.2-85.3-85.3-85.3H341.3z"/>
      <g>
        <path d="M682.6 2285.3c-17.1 0-34.5-3.4-51.2-10.8c-64.8-28.3-94.3-103.8-66-168.6l298.7-682.6 c17.4-39.9 53.9-68.1 96.8-75.1c42.5-6.8 86.5 8.4 115.6 40.8l252 280l261.2-587.7c28.7-64.5 104.2-93.7 169-65 c64.6 28.7 93.7 104.3 65 169l-341.3 768c-17.7 39.6-54.1 67.7-96.9 74.4c-43.2 6.9-86.2-8.5-115.2-40.8L1019 1707.9l-219.1 500.8 C778.9 2256.7 731.9 2285.3 682.6 2285.3z"/>
      </g>
    </g>
    <g id="Migrate">
      <path d="M1200.2 2015.1v249.8c0 172.4 204.2 263.3 332.3 148l416.6-374.9 c131.8-118.6 131.8-325.3 0-444l-416.6-374.9c-128.1-115.3-332.3-24.4-332.3 148v249.8"/>
      <path d="M1450.7 1986.7H85.4c-47.1 0-85.3-38.2-85.3-85.3V1736c0-47.1 38.2-85.3 85.3-85.3h1365.3 c47.1 0 85.3 38.2 85.3 85.3v165.3C1536 1948.5 1497.8 1986.7 1450.7 1986.7z"/>
    </g>
    <g id="Camera_Alt">
      <path d="M1706.7 1389.3H1536v-170.7c0-94.3-76.4-170.7-170.7-170.7H682.7 c-94.3 0-170.7 76.4-170.7 170.7v170.7H341.3c-94.3 0-170.7 76.4-170.7 170.7v853.3c0 94.3 76.4 170.7 170.7 170.7h1365.3 c94.3 0 170.7-76.4 170.7-170.7V1560C1877.3 1465.7 1800.9 1389.3 1706.7 1389.3z M1024 2328c-235.6 0-426.7-191-426.7-426.7 s191-426.7 426.7-426.7s426.7 191 426.7 426.7S1259.6 2328 1024 2328z"/>
      <circle cx="1024" cy="1901.3" r="256"/>
    </g>
    <g id="Camera">
      <path d="M1877.3 1304H1536v-170.7c0-94.3-76.4-170.7-170.7-170.7H682.7 c-94.3 0-170.7 76.4-170.7 170.7V1304H170.7C76.4 1304 0 1380.4 0 1474.7v1024c0 94.3 76.4 170.7 170.7 170.7h1706.7 c94.3 0 170.7-76.4 170.7-170.7v-1024C2048 1380.4 1971.6 1304 1877.3 1304z M1024 2413.3c-259.2 0-469.3-210.1-469.3-469.3 s210.1-469.3 469.3-469.3s469.3 210.1 469.3 469.3S1283.2 2413.3 1024 2413.3z"/>
      <circle cx="1024" cy="1944" r="298.7"/>
    </g>
    <g id="Arrow_Down">
      <path d="M852.5 963.9v1340.3L422 1870.9c-73.3-73.8-196.8-66.5-260.1 22.1 c-49.7 69.5-35 167 25.1 227.5l627.4 631.4c116.7 117.4 305.9 117.4 422.6 0L1866 2119c33.4-33.5 50-77.5 50-121.5 c0-48.1-20-96.4-60-130.8c-69.2-59.5-174.8-47.8-239.2 17L1194 2309.2V963.9c0-94.9-76.5-171.9-170.8-171.9 S852.5 868.9 852.5 963.9z"/>
    </g>
    <g id="Arrow_Up">
      <path d="M1195.5 2668.1V1327.8l430.5 433.2c73.3 73.8 196.8 66.5 260.1-22.1 c49.7-69.5 35-167-25.1-227.5l-627.4-631.4c-116.7-117.4-305.9-117.4-422.6 0L182 1513c-33.4 33.5-50 77.5-50 121.5 c0 48.1 20 96.4 60 130.8c69.2 59.5 174.8 47.8 239.2-17L854 1322.8v1345.3c0 94.9 76.5 171.9 170.8 171.9 S1195.5 2763.1 1195.5 2668.1z"/>
    </g>
    <g id="Arrow_Right_2_">
      <path d="M171.9 1987.5h1340.3L1078.9 2418c-73.8 73.3-66.5 196.8 22.1 260.1 c69.5 49.7 167 35 227.5-25.1l631.4-627.4c117.4-116.7 117.4-305.9 0-422.6L1327 974c-33.5-33.4-77.5-50-121.5-50 c-48.1 0-96.4 20-130.8 60c-59.5 69.2-47.8 174.8 17 239.2l425.5 422.8H171.9C76.9 1646 0 1722.4 0 1816.7 C0 1911 76.9 1987.5 171.9 1987.5z"/>
    </g>
    <g id="Arrow_Left">
      <path d="M1876.1 1644.5H535.9L969.1 1214c73.8-73.3 66.5-196.8-22.1-260.1 c-69.5-49.7-167-35-227.5 25.1L88.1 1606.5c-117.4 116.7-117.4 305.9 0 422.6L721 2658c33.5 33.4 77.5 50 121.5 50 c48.1 0 96.4-20 130.8-60c59.5-69.2 47.8-174.8-17-239.2L530.8 1986h1345.3c94.9 0 171.9-76.5 171.9-170.8 C2048 1721 1971.1 1644.5 1876.1 1644.5z"/>
    </g>
    <g id="Label_Single">
      <path d="M1620.9 2840c-22.1 0-44-8.7-60.2-25.1L1024.1 2278l-536.5 537.1 c-24.5 24.5-61.3 31.5-93 18.5c-31.8-13.2-52.6-44.3-52.6-78.8V1048c0-141.4 114.5-256 255.8-256h852.5 c141.2 0 255.8 114.6 255.8 256v1706.7c0 34.5-20.8 65.6-52.6 78.8C1643 2837.9 1631.8 2840 1620.9 2840z"/>
    </g>
    <g id="Label_Double">
      <path d="M1791.8 2840c-22.1 0-44-8.7-60.2-25.1L1194.7 2278l-536.9 537.1 c-24.5 24.5-61.3 31.5-93 18.5c-31.9-13.2-52.7-44.3-52.7-78.8V1048c0-141.4 114.6-256 255.9-256h853.1 c141.3 0 255.9 114.6 255.9 256v1706.7c0 34.5-20.8 65.6-52.7 78.8C1814 2837.9 1802.8 2840 1791.8 2840z"/>
      <path d="M426.9 792C285.6 792 171 906.6 171 1048v1705.7c0 47 37.6 85.9 84.6 86.3 c47.3 0.3 85.8-37.9 85.8-85.2l0.2-1706.8c0-141.4 114.6-256 255.9-256l0 0H426.9z"/>
    </g>
    <g id="Label_Triple">
      <path d="M256 792C114.6 792 0 906.6 0 1048l0 1705.7c0 47 37.6 85.9 84.6 86.3 c47.4 0.3 85.8-37.9 85.8-85.2l0.2-1706.8c0-141.4 114.6-256 256-256l0 0H256z"/>
      <path d="M597.4 792c-141.4 0-256 114.6-256 256v1705.7c0 47 37.6 85.9 84.6 86.3 c47.4 0.3 85.8-37.9 85.8-85.2L512 1048c0-141.4 114.6-256 256-256l0 0H597.4z"/>
      <g id="Label_Single_1_">
          <path d="M1962.8 2840c-22.1 0-44-8.7-60.3-25.1L1365.4 2278l-537.1 537.1c-24.5 24.5-61.3 31.5-93.1 18.5 c-31.9-13.2-52.7-44.3-52.7-78.8V1048c0-141.4 114.6-256 256-256H1792c141.4 0 256 114.6 256 256v1706.7 c0 34.5-20.8 65.6-52.7 78.8C1984.9 2837.9 1973.7 2840 1962.8 2840z"/>
      </g>
    </g>
    <g id="More">
      <path d="M256 2072L256 2072c-141.4 0-256-114.6-256-256v0c0-141.4 114.6-256 256-256h0c141.4 0 256 114.6 256 256 v0C512 1957.4 397.4 2072 256 2072z"/>
      <path d="M1024 2072L1024 2072c-141.4 0-256-114.6-256-256v0c0-141.4 114.6-256 256-256h0 c141.4 0 256 114.6 256 256v0C1280 1957.4 1165.4 2072 1024 2072z"/>
      <path d="M1792 2072L1792 2072c-141.4 0-256-114.6-256-256v0c0-141.4 114.6-256 256-256h0 c141.4 0 256 114.6 256 256v0C2048 1957.4 1933.4 2072 1792 2072z"/>
    </g>
    <g id="Exclamation_Mark">
      <path d="M1024 2313.5c-140.7 0-244.6 111.6-244.6 260.1v5.7c0 148.1 104.3 260.1 244.6 260.1 c140.7 0 244.6-111.6 244.6-260.1v-5.7C1268.6 2425.2 1164.7 2313.5 1024 2313.5z"/>
      <path d="M1024 2152L1024 2152c-124 0-227.6-106.8-238.8-246.3l-59.9-744.4C709.3 963 847.6 792 1024 792h0 c176.4 0 314.7 171 298.7 369.4l-59.9 744.4C1251.6 2045.2 1148 2152 1024 2152z"/>
    </g>
    <g id="Question_Mark">
      <path d="M1013.8 793.3c-217.2 0-398.3 67.5-553.7 206.6c-48.5 43.5-74.8 103-74.8 168.1 c0 118 92.6 217.9 202.5 217.9c44.1 0 89.9-17.4 129.3-49.1c90.9-73.5 184.5-107.6 291-107.6c139 0 220.5 64.5 220.5 176.8v5.7 c0 124-97.9 192.5-314.1 221.9c-47.8 6.4-86.9 28.4-111.6 63.8c-24.4 34.8-33.7 79.2-26.7 129.4l25.7 191.5 c12.7 91.9 78.5 157.1 160.4 157.1h20.7c90.9 0 149.4-79.6 160.4-156.4l5.3-36.1c346.5-79.2 514.6-270.1 514.6-581.6v-5.7 C1663.1 1023.6 1414.5 793.3 1013.8 793.3z"/>
      <path d="M963 2313.5c-140.7 0-244.6 111.6-244.6 260.1v5.7c0 148.1 104.3 260.1 244.6 260.1 c140.7 0 244.6-111.6 244.6-260.1v-5.7C1207.6 2425.2 1103.7 2313.5 963 2313.5z"/>
    </g>
    <g id="Bolt">
      <path d="M1024.2 793.3v894.8h638.9L896.2 2839v-763.1H384.9L1024.2 793.3"/>
    </g>
    <g id="Wrench">
      <path d="M1975.2 1354.2c-22.7-25.4-61.8-25.4-86.9-2.3l-290.4 303.5c-57.1 57.5-144 71.2-214.9 34.4 c-50.5-25.4-95.9-59.8-135-101.3c-41.1-39.1-75.5-85.2-100.6-135.7c-36.4-71.2-22.7-158.8 34.4-216.3l292.7-298.8 c20.7-25.4 20.7-62.2-2.3-85.2c-32.1-29.7-144-59.8-276.7-59.8c-151 0-326.8 36.8-445.8 154.1c-187.5 183.8-205.8 473.6-93.9 754.1 L68.5 2379.7c-86.9 103.6-91.6 257.4 0 363.3c98.2 115 274.3 128.7 391 29.7l674.3-586.3c109.6 48.1 221.9 73.5 331.5 71.2 c157.7 0 306.4-55.2 416-165.5C2128.2 1843.9 2043.7 1423.4 1975.2 1354.2z"/>
    </g>
    <g id="Eject">
      <path d="M2046.7 2752.4c0 48.1-38.8 86.9-86.9 86.9c-4.3 0-9-0.3-13.4-1H101.6c-4.3 0.7-8.7 1-13.4 1 c-48.1 0-86.9-38.8-86.9-86.9c0-1 0-2 0-3l0 0v-203.9l0 0c0-1.3 0-2.7 0-4c0-47.1 37.4-85.2 83.9-86.9l0 0h1871.2l0 0c1 0 2 0 3 0 c46.8 0 84.5 36.8 86.9 82.9l0 0v207.9h-0.3C2046.3 2747.7 2046.7 2750.1 2046.7 2752.4z M1948.8 2199.2c-0.7 0-1.3 0-2 0l0 0 H100.2l0 0c-1 0-2 0-3 0c-52.8 0-95.9-43.5-95.9-98.3c0-22.4 7-42.8 19-59.5h-0.7L942.6 835.8c17-26.7 48.1-43.1 81.2-43.1 s60.8 16 77.9 42.8l916.6 1197.3c16 17.7 25.7 41.8 25.7 67.9C2044.3 2155.8 2001.6 2199.2 1948.8 2199.2z"/>
    </g>
    <g id="z">
      <path d="M2046.3 1432.8c0-65.8-25.1-130.7-74.8-180.8c-99.9-99.9-261.6-99.9-361.2 0l-586.1 586.3l-586.1-586.3 c-99.9-99.9-261.6-99.9-361.2 0c-99.6 99.9-99.9 261.7 0 361.3l766.5 766.8c99.9 99.9 261.6 99.9 361.2 0l766.5-766.8 C2021.3 1563.5 2046.3 1497.6 2046.3 1432.8z"/>
    </g>
    <g id="y">
      <path d="M640.6 793.7c-65.8 0-130.7 25.1-180.8 74.9c-99.9 99.9-99.9 261.7 0 361.3l586.1 586.3l-585.8 586 c-99.9 99.9-99.9 261.7 0 361.3s261.6 99.9 361.2 0l766.5-766.8c99.9-99.9 99.9-261.7 0-361.3L821.3 868.5 C771.6 818.4 705.7 793.7 640.6 793.7z"/>
    </g>
    <g id="x">
      <path d="M1407.4 2838.7c65.8 0 130.7-25.1 180.8-74.9c99.9-99.9 99.9-261.7 0-361.3l-586.1-586.3l586.1-586.3 c99.9-99.9 99.9-261.7 0-361.3c-99.9-99.9-261.6-99.9-361.2 0l-766.9 766.8c-99.9 99.9-99.9 261.7 0 361.3l766.5 766.8 C1276.4 2813.6 1342.6 2838.7 1407.4 2838.7z"/>
    </g>
    <g id="w">
      <path d="M7.4 2196.6c0 65.5 24.7 129.7 74.5 179.2c99.2 98.9 260 98.9 359.5 0l582.8-581.6l582.8 581.6 c99.2 98.9 260 98.9 359.5 0c99.2-98.9 99.2-259.7 0-358.7l-762.9-760.8c-99.2-98.9-260-98.9-359.5 0L81.9 2017.4 C32.1 2066.9 7.4 2132 7.4 2196.6z"/>
    </g>
    <g id="caret-up">
      <path d="M7.4 2196.6c0 65.5 24.7 129.7 74.5 179.2c99.2 98.9 260 98.9 359.5 0l582.8-581.6l582.8 581.6 c99.2 98.9 260 98.9 359.5 0c99.2-98.9 99.2-259.7 0-358.7l-762.9-760.8c-99.2-98.9-260-98.9-359.5 0L81.9 2017.4 C32.1 2066.9 7.4 2132 7.4 2196.6z"/>
    </g>
    <g id="caret-left">
      <path d="M1407.4 2838.7c65.8 0 130.7-25.1 180.8-74.9c99.9-99.9 99.9-261.7 0-361.3l-586.1-586.3l586.1-586.3 c99.9-99.9 99.9-261.7 0-361.3c-99.9-99.9-261.6-99.9-361.2 0l-766.9 766.8c-99.9 99.9-99.9 261.7 0 361.3l766.5 766.8 C1276.4 2813.6 1342.6 2838.7 1407.4 2838.7z"/>
    </g>
    <g id="caret-right">
      <path d="M640.6 793.7c-65.8 0-130.7 25.1-180.8 74.9c-99.9 99.9-99.9 261.7 0 361.3l586.1 586.3l-585.8 586 c-99.9 99.9-99.9 261.7 0 361.3s261.6 99.9 361.2 0l766.5-766.8c99.9-99.9 99.9-261.7 0-361.3L821.3 868.5 C771.6 818.4 705.7 793.7 640.6 793.7z"/>
    </g>
    <g id="caret-down">
      <path d="M2046.3 1432.8c0-65.8-25.1-130.7-74.8-180.8c-99.9-99.9-261.6-99.9-361.2 0l-586.1 586.3l-586.1-586.3 c-99.9-99.9-261.6-99.9-361.2 0c-99.6 99.9-99.9 261.7 0 361.3l766.5 766.8c99.9 99.9 261.6 99.9 361.2 0l766.5-766.8 C2021.3 1563.5 2046.3 1497.6 2046.3 1432.8z"/>
    </g>
    <g id="v">
      <path d="M1437.2 1816.2l522.9-523.1c56.8-57.8 85.9-131.7 85.9-206.6c0-74.9-29.1-149.7-85.9-206.6 c-56.8-56.8-131.7-85.9-206.5-85.9c-73.8 0-148.7 29.1-205.5 85.9l-523.9 522.8L499.9 879.6c-56.8-56.8-131.7-85.9-205.5-85.9 c-74.8 0-149.7 29.1-206.5 85.9C31.1 936.4 2 1011.3 2 1086.1c0 73.9 29.1 148.7 85.9 206.6l522.9 523.4L87.5 2340.3 C30.7 2397.1 1.7 2472 1.7 2545.9c0 74.9 29.1 149.7 85.9 206.6c56.8 56.8 131.7 85.9 206.5 85.9c73.8 0 148.7-29.1 205.5-85.9 l523.9-523.1l523.9 523.1c56.8 56.8 131.7 85.9 205.5 85.9c74.8 0 149.7-29.1 206.5-85.9c56.8-56.8 85.9-131.7 85.9-205.6 c0-74.9-29.1-149.7-85.9-206.6L1437.2 1816.2z"/>
    </g>
    <g id="x-round">
      <path d="M1437.2 1816.2l522.9-523.1c56.8-57.8 85.9-131.7 85.9-206.6c0-74.9-29.1-149.7-85.9-206.6 c-56.8-56.8-131.7-85.9-206.5-85.9c-73.8 0-148.7 29.1-205.5 85.9l-523.9 522.8L499.9 879.6c-56.8-56.8-131.7-85.9-205.5-85.9 c-74.8 0-149.7 29.1-206.5 85.9C31.1 936.4 2 1011.3 2 1086.1c0 73.9 29.1 148.7 85.9 206.6l522.9 523.4L87.5 2340.3 C30.7 2397.1 1.7 2472 1.7 2545.9c0 74.9 29.1 149.7 85.9 206.6c56.8 56.8 131.7 85.9 206.5 85.9c73.8 0 148.7-29.1 205.5-85.9 l523.9-523.1l523.9 523.1c56.8 56.8 131.7 85.9 205.5 85.9c74.8 0 149.7-29.1 206.5-85.9c56.8-56.8 85.9-131.7 85.9-205.6 c0-74.9-29.1-149.7-85.9-206.6L1437.2 1816.2z"/>
    </g>
    <g id="M">
      <path d="M1929.4 793.7H709.7v217.6h1002.1v1609.8H709.7v217.6h1220v-2045H1929.4z M1417.5 1816.2l-638.9-638.1 l-153.7 153.8l376.3 375.4H118.6v217.6h882.5l-376.3 375.7l153.7 153.8L1417.5 1816.2z"/>
    </g>
    <g id="L">
      <path d="M349.2 2621.1V1011.3h1007.1V793.7H129.6v2045h1227v-217.6H349.2z M1120.7 2300.5l154.7 153.8 l642.9-638.1l-642.9-638.1l-154.7 153.8l378.3 375.4H611.8v217.6h887.5L1120.7 2300.5z"/>
    </g>
    <g id="import">
      <path d="M1929.4 793.7H709.7v217.6h1002.1v1609.8H709.7v217.6h1220v-2045H1929.4z M1417.5 1816.2l-638.9-638.1 l-153.7 153.8l376.3 375.4H118.6v217.6h882.5l-376.3 375.7l153.7 153.8L1417.5 1816.2z"/>
    </g>
    <g id="export">
      <path d="M349.2 2621.1V1011.3h1007.1V793.7H129.6v2045h1227v-217.6H349.2z M1120.7 2300.5l154.7 153.8 l642.9-638.1l-642.9-638.1l-154.7 153.8l378.3 375.4H611.8v217.6h887.5L1120.7 2300.5z"/>
    </g>
    <g id="K">
      <path d="M1382.4 1816.2l626.9-627.1c48.8-49.8 48.8-129.7 0-178.8l-179.8-179.8c-48.8-48.8-129.6-48.8-178.8 0 l-626.5 627.1L397.3 830.4c-48.8-48.8-129.6-48.8-178.8 0L38.8 1010.3c-48.8 48.8-48.8 128.7 0 178.8l626.9 627.1L38.8 2443.2 c-48.8 49.8-48.8 129.7 0 178.8l179.8 179.8c48.8 48.8 129.6 48.8 178.8 0l626.9-627.1l626.9 627.1c48.8 48.8 129.6 48.8 178.8 0 l179.8-179.8c48.8-48.8 48.8-128.7 0-178.8L1382.4 1816.2z"/>
    </g>
    <g id="x-square">
      <path d="M1382.4 1816.2l626.9-627.1c48.8-49.8 48.8-129.7 0-178.8l-179.8-179.8c-48.8-48.8-129.6-48.8-178.8 0 l-626.5 627.1L397.3 830.4c-48.8-48.8-129.6-48.8-178.8 0L38.8 1010.3c-48.8 48.8-48.8 128.7 0 178.8l626.9 627.1L38.8 2443.2 c-48.8 49.8-48.8 129.7 0 178.8l179.8 179.8c48.8 48.8 129.6 48.8 178.8 0l626.9-627.1l626.9 627.1c48.8 48.8 129.6 48.8 178.8 0 l179.8-179.8c48.8-48.8 48.8-128.7 0-178.8L1382.4 1816.2z"/>
    </g>
    <g id="J">
      <path d="M28.7 1898.4c-36.1-35.1-36.1-91.9 0-127.7L160.4 1644c36.1-35.1 94.9-35.1 131.7 0l453.1 445.2 l1010.1-990.4c37.1-35.1 95.9-35.1 131.7 0l131.7 127.7c36.1 35.1 36.1 91.9 0 126.7L811.3 2533.5c-37.1 35.1-95.9 35.1-131.7 0 L28.7 1898.4z"/>
    </g>
    <g id="check">
      <path d="M28.7 1898.4c-36.1-35.1-36.1-91.9 0-127.7L160.4 1644c36.1-35.1 94.9-35.1 131.7 0l453.1 445.2 l1010.1-990.4c37.1-35.1 95.9-35.1 131.7 0l131.7 127.7c36.1 35.1 36.1 91.9 0 126.7L811.3 2533.5c-37.1 35.1-95.9 35.1-131.7 0 L28.7 1898.4z"/>
    </g>
    <g id="I">
      <path d="M2038 1577.2c-9 67.9-30.1 132-60.8 190.5c-6 14.4-13 29.1-20.4 44.5H1774l-223.9-405.8 c-13.4-24.4-39.1-39.1-66.8-38.8c-27.7 0.7-52.8 16.4-65.5 41.1L1228 1785.1l-123-248.4c-12-24.7-36.8-40.4-64.5-41.4 c-27.4-1-53.1 13.4-67.2 37.1l-161.7 276.8H83.2c-13.4-28.1-24.4-54.5-33.7-78.6C18.7 1660.1 1.7 1581.9 1.7 1500 c0-318.2 257.3-576.3 574.7-576.3c179.4 0 339.8 82.6 445.4 211.9c105.3-129.4 265.6-211.9 445.4-211.9 c317.4 0 574.7 258 574.7 576.3c0 0.3 0 1 0 1.3h2C2045 1501 2047 1527 2038 1577.2z M855.4 1958.6c26.4 0 51.1-14 64.5-37.1 l113.3-193.9l127.6 258.4c12.7 25.4 38.4 41.4 66.8 41.4h0.3c28.1 0 54.1-16 66.8-41.1l193.1-383.7l176.8 320.2 c13 23.7 38.1 38.8 65.5 38.8h144.7c-64.8 105.3-154 227.3-277.3 364.3c-186.1 207.2-426.7 383.4-572.7 383.4 c-159.7 0-391.3-176.2-577.4-382.7c-126-140.1-216.5-262.7-281.4-368H855.4L855.4 1958.6z"/>
    </g>
    <g id="heart">
      <path d="M2038 1577.2c-9 67.9-30.1 132-60.8 190.5c-6 14.4-13 29.1-20.4 44.5H1774l-223.9-405.8 c-13.4-24.4-39.1-39.1-66.8-38.8c-27.7 0.7-52.8 16.4-65.5 41.1L1228 1785.1l-123-248.4c-12-24.7-36.8-40.4-64.5-41.4 c-27.4-1-53.1 13.4-67.2 37.1l-161.7 276.8H83.2c-13.4-28.1-24.4-54.5-33.7-78.6C18.7 1660.1 1.7 1581.9 1.7 1500 c0-318.2 257.3-576.3 574.7-576.3c179.4 0 339.8 82.6 445.4 211.9c105.3-129.4 265.6-211.9 445.4-211.9 c317.4 0 574.7 258 574.7 576.3c0 0.3 0 1 0 1.3h2C2045 1501 2047 1527 2038 1577.2z M855.4 1958.6c26.4 0 51.1-14 64.5-37.1 l113.3-193.9l127.6 258.4c12.7 25.4 38.4 41.4 66.8 41.4h0.3c28.1 0 54.1-16 66.8-41.1l193.1-383.7l176.8 320.2 c13 23.7 38.1 38.8 65.5 38.8h144.7c-64.8 105.3-154 227.3-277.3 364.3c-186.1 207.2-426.7 383.4-572.7 383.4 c-159.7 0-391.3-176.2-577.4-382.7c-126-140.1-216.5-262.7-281.4-368H855.4L855.4 1958.6z"/>
    </g>
    <g id="H">
      <path d="M768.5 2710.6h511.2v-639.1h638.9v-511.1h-638.9V921.7H768.5v639.1H129.3v511.1h638.9v638.8H768.5z"/>
    </g>
    <g id="plus">
      <path d="M768.5 2710.6h511.2v-639.1h638.9v-511.1h-638.9V921.7H768.5v639.1H129.3v511.1h638.9v638.8H768.5z"/>
    </g>
    <g id="G">
      <path d="M2033.6 1366.6c17-17 17-45.8 0-62.8l-297.4-305.5c-16-17-44.8-17-60.8 0l-906.5 931.6l-395.6-420.2 c-16-17-44.8-17-60.8 0L14 1827.9c-16 17-17 45.8 0 62.8l723.8 742.7c10 8 19 13 31.1 13c12 0 21.1-5 31.1-13L2033.6 1366.6z"/>
    </g>
    <g id="check-thick">
      <path d="M2033.6 1366.6c17-17 17-45.8 0-62.8l-297.4-305.5c-16-17-44.8-17-60.8 0l-906.5 931.6l-395.6-420.2 c-16-17-44.8-17-60.8 0L14 1827.9c-16 17-17 45.8 0 62.8l723.8 742.7c10 8 19 13 31.1 13c12 0 21.1-5 31.1-13L2033.6 1366.6z"/>
    </g>
    <g id="F">
    <path d="M1848.8,1465.2l-473.5-474.3l178.8-178.8c25.1-25.1,64.8-25.1,89.9,0l383.3,383.4 c25.1,25.1,25.1,65.8,0,90.9L1848.8,1465.2z M1759,1554.8l-473.5-473L84.5,2282.8c-10,9-16,22.1-18,36.1L2.7,2765.8 c-3,20.1,4,39.8,18,53.8c12,12,28.1,19.1,44.8,19.1c3,0,6,0,9-1l447.4-63.8c14-2,27.1-8,36.1-18.1L1759,1554.8z M512.9,2647.1 L129.3,2711l64.2-383.4L512.9,2647.1z"/>
    </g>
    <g id="pencil">
    <path d="M1848.8,1465.2l-473.5-474.3l178.8-178.8c25.1-25.1,64.8-25.1,89.9,0l383.3,383.4 c25.1,25.1,25.1,65.8,0,90.9L1848.8,1465.2z M1759,1554.8l-473.5-473L84.5,2282.8c-10,9-16,22.1-18,36.1L2.7,2765.8 c-3,20.1,4,39.8,18,53.8c12,12,28.1,19.1,44.8,19.1c3,0,6,0,9-1l447.4-63.8c14-2,27.1-8,36.1-18.1L1759,1554.8z M512.9,2647.1 L129.3,2711l64.2-383.4L512.9,2647.1z"/>
    </g>
    <g id="E">
      <path d="M1024.2 2838.3C458.8 2838.3 1.7 2381.1 1.7 1816.2c0-564.2 457.1-1022.5 1022.5-1022.5 s1022.5 458.3 1022.5 1022.5C2046.3 2381.1 1589.2 2838.3 1024.2 2838.3z M1024.2 1049.4c-423.4 0-766.9 343.3-766.9 766.8 S600.8 2583 1024.2 2583s766.5-343.6 766.5-766.8S1447.2 1049.4 1024.2 1049.4z M1407.4 1943.9H896.2v-638.8h255.6v383.4h255.6 V1943.9L1407.4 1943.9z"/>
    </g>
    <g id="clock">
      <path d="M1024.2 2838.3C458.8 2838.3 1.7 2381.1 1.7 1816.2c0-564.2 457.1-1022.5 1022.5-1022.5 s1022.5 458.3 1022.5 1022.5C2046.3 2381.1 1589.2 2838.3 1024.2 2838.3z M1024.2 1049.4c-423.4 0-766.9 343.3-766.9 766.8 S600.8 2583 1024.2 2583s766.5-343.6 766.5-766.8S1447.2 1049.4 1024.2 1049.4z M1407.4 1943.9H896.2v-638.8h255.6v383.4h255.6 V1943.9L1407.4 1943.9z"/>
    </g>
    <g id="D">
      <path d="M2024.3 2343.3C1343.6 1880 1854.9 793.7 1024.2 793.7S704.7 1880 23.7 2343.3 c-16 11-22.1 30.1-22.1 47.8c0 8 1 15 4 23.1c10 25.1 33.1 40.8 59.8 40.8h1917c27.1 0 49.8-16 59.8-40.8c3-8 4-15 4-23.1 C2046.3 2373.4 2040.3 2354.3 2024.3 2343.3z M1343.6 2583c-46.8 148.7-171.8 255.7-319.4 255.7s-272.7-107-319.4-255.7H1343.6z"/>
    </g>
    <g id="bell">
      <path d="M2024.3 2343.3C1343.6 1880 1854.9 793.7 1024.2 793.7S704.7 1880 23.7 2343.3 c-16 11-22.1 30.1-22.1 47.8c0 8 1 15 4 23.1c10 25.1 33.1 40.8 59.8 40.8h1917c27.1 0 49.8-16 59.8-40.8c3-8 4-15 4-23.1 C2046.3 2373.4 2040.3 2354.3 2024.3 2343.3z M1343.6 2583c-46.8 148.7-171.8 255.7-319.4 255.7s-272.7-107-319.4-255.7H1343.6z"/>
    </g>
    <g id="C">
      <path d="M2029.3 1528.7l-206.5 169.8c7 33.1 10 72.9 10 118.7c0 44.8-3 84.9-10 117.7l206.5 170.8 c17 11 21.1 26.1 13 44.8c-41.8 120.7-109.9 232.6-204.8 335.6c-13 16-29.1 20.1-47.8 12l-259.6-84.9 c-65.8 49.8-137.7 89.9-214.5 117.7l-51.8 255.7c-3 19.1-15 30.1-35.1 33.1c-71.8 13-139.7 19.1-204.8 19.1 c-64.8 0-132.7-6-204.8-19.1c-20-3-32.1-14-35.1-33.1l-51.8-255.7c-81.9-30.1-153.7-68.9-214.5-117.7l-259.3 84.9 c-19 8-35.1 4-47.8-12c-94.9-102.6-163.1-214.6-204.8-335.3c-8-19.1-4-34.1 13-44.8l206.5-170.8c-7-33.1-10-72.9-10-117.7 c0-45.8 3-85.9 10-118.7L18.7 1528.7c-17-11-21.1-27.1-13-44.8c41.8-121.7 109.9-233.6 204.8-336.6c13-16 29.1-20.1 47.8-12 l259.6 85.9c60.8-48.8 132.7-88.9 214.5-118.7l51.8-255.7c3-19.1 15-30.1 35.1-33.1c136.7-27.1 272.7-27.1 409.3 0 c20 3 32.1 14 35.1 33.1l51.8 255.7c76.9 29.1 148.7 67.9 214.5 118.7l259.6-85.9c19-8 35.1-4 47.8 12 c94.9 103 162.7 214.6 204.8 336.6C2050.3 1501.6 2046.3 1517.7 2029.3 1528.7z M1024.2 1435.1c-211.9 0-383.6 171.8-383.6 383.7 s171.8 383.7 383.6 383.7s383.6-171.8 383.6-383.7S1236 1435.1 1024.2 1435.1z"/>
    </g>
    <g id="gear">
      <path d="M2029.3 1528.7l-206.5 169.8c7 33.1 10 72.9 10 118.7c0 44.8-3 84.9-10 117.7l206.5 170.8 c17 11 21.1 26.1 13 44.8c-41.8 120.7-109.9 232.6-204.8 335.6c-13 16-29.1 20.1-47.8 12l-259.6-84.9 c-65.8 49.8-137.7 89.9-214.5 117.7l-51.8 255.7c-3 19.1-15 30.1-35.1 33.1c-71.8 13-139.7 19.1-204.8 19.1 c-64.8 0-132.7-6-204.8-19.1c-20-3-32.1-14-35.1-33.1l-51.8-255.7c-81.9-30.1-153.7-68.9-214.5-117.7l-259.3 84.9 c-19 8-35.1 4-47.8-12c-94.9-102.6-163.1-214.6-204.8-335.3c-8-19.1-4-34.1 13-44.8l206.5-170.8c-7-33.1-10-72.9-10-117.7 c0-45.8 3-85.9 10-118.7L18.7 1528.7c-17-11-21.1-27.1-13-44.8c41.8-121.7 109.9-233.6 204.8-336.6c13-16 29.1-20.1 47.8-12 l259.6 85.9c60.8-48.8 132.7-88.9 214.5-118.7l51.8-255.7c3-19.1 15-30.1 35.1-33.1c136.7-27.1 272.7-27.1 409.3 0 c20 3 32.1 14 35.1 33.1l51.8 255.7c76.9 29.1 148.7 67.9 214.5 118.7l259.6-85.9c19-8 35.1-4 47.8 12 c94.9 103 162.7 214.6 204.8 336.6C2050.3 1501.6 2046.3 1517.7 2029.3 1528.7z M1024.2 1435.1c-211.9 0-383.6 171.8-383.6 383.7 s171.8 383.7 383.6 383.7s383.6-171.8 383.6-383.7S1236 1435.1 1024.2 1435.1z"/>
    </g>
    <g id="B">
      <path d="M1988.9 2780.8c-78.9 78.9-206.5 78.9-285.7 0l-332.5-332.6C1233 2534.2 1070.3 2584 895.5 2584 C401.3 2584 0 2182.5 0 1687.5C0 1193.4 401.3 792 895.5 792c495.2 0 896.5 401.4 896.5 895.5c0 174.8-49.8 337.6-135.7 475.3 l332.5 332.6C2067.7 2574.3 2067.7 2702 1988.9 2780.8z M896.5 1175.4c-283.7 0-513.3 229.6-513.3 512.1 c0 283.5 229.6 513.1 513.3 513.1c282.7 0 512.3-229.6 512.3-513.1C1408.8 1405 1179.2 1175.4 896.5 1175.4z"/>
    </g>
    <g id="mag-glass">
      <path d="M1988.9 2780.8c-78.9 78.9-206.5 78.9-285.7 0l-332.5-332.6C1233 2534.2 1070.3 2584 895.5 2584 C401.3 2584 0 2182.5 0 1687.5C0 1193.4 401.3 792 895.5 792c495.2 0 896.5 401.4 896.5 895.5c0 174.8-49.8 337.6-135.7 475.3 l332.5 332.6C2067.7 2574.3 2067.7 2702 1988.9 2780.8z M896.5 1175.4c-283.7 0-513.3 229.6-513.3 512.1 c0 283.5 229.6 513.1 513.3 513.1c282.7 0 512.3-229.6 512.3-513.1C1408.8 1405 1179.2 1175.4 896.5 1175.4z"/>
    </g>
    <g id="A">
      <path d="M1023.3 2072c-282 0-510.8-229-510.8-511.9v-256.1c0-282.9 228.8-511.9 510.8-511.9 c283 0 511.9 229 511.9 511.9V1560C1535.1 1843 1306.3 2072 1023.3 2072z M2047 2712.1c0 18.1-4 35.2-10 49.9 c-20.1 45.9-64.9 78-118.1 78H128.7c-52.9 0-99-32.1-118.1-78c-7-15.1-10-32.1-10-49.9v-384c0 0-27.1-231 286-438.9 c11-8 24.1-14.1 35.1-21.1c119.1 270.9 387.7 460 701.9 460s583.8-189.2 701.9-460c12 7 25.1 13.1 36.1 21.1 c307.8 202.9 286 438.9 286 438.9L2047 2712.1L2047 2712.1z"/>
    </g>
    <g id="user">
      <path d="M1023.3 2072c-282 0-510.8-229-510.8-511.9v-256.1c0-282.9 228.8-511.9 510.8-511.9 c283 0 511.9 229 511.9 511.9V1560C1535.1 1843 1306.3 2072 1023.3 2072z M2047 2712.1c0 18.1-4 35.2-10 49.9 c-20.1 45.9-64.9 78-118.1 78H128.7c-52.9 0-99-32.1-118.1-78c-7-15.1-10-32.1-10-49.9v-384c0 0-27.1-231 286-438.9 c11-8 24.1-14.1 35.1-21.1c119.1 270.9 387.7 460 701.9 460s583.8-189.2 701.9-460c12 7 25.1 13.1 36.1 21.1 c307.8 202.9 286 438.9 286 438.9L2047 2712.1L2047 2712.1z"/>
    </g>
    <g id="question-tooltip">
      <path d="M1024 792C458.5 792 0 1250.5 0 1816s458.5 1024 1024 1024s1024-458.5 1024-1024S1589.5 792 1024 792z M1673.3 2465.3 c-84.4 84.4-182.6 150.6-291.9 196.8c-113.1 47.9-233.4 72.1-357.4 72.1s-244.3-24.3-357.4-72.1 c-109.3-46.2-207.5-112.5-291.9-196.8c-84.4-84.4-150.6-182.6-196.8-291.9C130 2060.3 105.8 1940 105.8 1816s24.3-244.3 72.1-357.4 c46.2-109.3 112.5-207.5 196.8-291.9c84.4-84.4 182.6-150.6 291.9-196.8C779.7 922 900 897.8 1024 897.8s244.3 24.3 357.4 72.1 c109.3 46.2 207.5 112.5 291.9 196.8c84.4 84.4 150.6 182.6 196.8 291.9c47.9 113.1 72.1 233.4 72.1 357.4s-24.3 244.3-72.1 357.4 C1823.9 2282.7 1757.7 2380.9 1673.3 2465.3z"/>
      <path d="M1023.7 2193.5c-51.2 0-93.8 42.6-93.8 93.8s42.6 93.8 93.8 93.8c51.2 0 93.8-42.6 93.8-93.8S1074.9 2193.5 1023.7 2193.5z "/>
      <path d="M1042.5 1209.4c-138.2 0-252.4 49.5-337.7 136.5c-11.9 11.9-17.1 29-17.1 44.3c0 34.1 30.7 63.1 61.4 63.1 c15.4 0 30.7-5.1 40.9-17.1c59.7-61.4 134.7-100.6 238.8-100.6c134.7 0 201.3 73.3 201.3 158.6c0 180.8-308.7 199.6-308.7 416.2 c0 32.4 23.9 143.3 92.1 143.3c32.4 0 54.6-27.3 54.6-56.3c0-25.6-22.2-52.9-22.2-76.8c0-167.2 330.9-189.3 330.9-446.9 C1376.8 1327.1 1250.6 1209.4 1042.5 1209.4z"/>
    </g>
    <g id="information-tooltip">
      <path d="M1024 792C458.5 792 0 1250.5 0 1816s458.5 1024 1024 1024s1024-458.5 1024-1024S1589.5 792 1024 792z M1673.3 2465.3 c-84.4 84.4-182.6 150.6-291.9 196.8c-113.1 47.9-233.4 72.1-357.4 72.1s-244.3-24.3-357.4-72.1 c-109.3-46.2-207.5-112.5-291.9-196.8c-84.4-84.4-150.6-182.6-196.8-291.9C130 2060.3 105.8 1940 105.8 1816s24.3-244.3 72.1-357.4 c46.2-109.3 112.5-207.5 196.8-291.9c84.4-84.4 182.6-150.6 291.9-196.8C779.7 922 900 897.8 1024 897.8s244.3 24.3 357.4 72.1 c109.3 46.2 207.5 112.5 291.9 196.8c84.4 84.4 150.6 182.6 196.8 291.9c47.9 113.1 72.1 233.4 72.1 357.4s-24.3 244.3-72.1 357.4 C1823.9 2282.7 1757.7 2380.9 1673.3 2465.3z"/>
      <path d="M1022.8 1391.4c30.5 0 56.2-11.8 77-35.4c20.8-23.6 31.2-51.2 31.2-82.9c0-28.3-10.1-53.2-30.4-74.5 c-20.3-21.4-46.2-32.1-77.9-32.1c-28.3 0-52.9 11.4-73.7 34.1c-20.8 22.8-31.2 49.4-31.2 80c0 28.9 10.4 54.6 31.2 77 S994.4 1391.4 1022.8 1391.4z"/>
      <path d="M1160.7 2355c-16-6.1-27.7-15.5-35.1-28.3c-7.4-12.8-11.2-28.9-11.2-48.3v-669.6l-11.7-11.7l-289.8 18.3v55 c16.7 1.1 35 4 55 8.7c20 4.7 35.3 10.4 45.8 17c14.4 10 25.7 22.3 33.7 37c8 14.7 12.1 30.9 12.1 48.7v506.6 c0 20-3.7 36.2-11.2 48.7c-7.5 12.5-19 21.2-34.6 26.2c-10 3.3-21.8 5.5-35.4 6.6c-13.6 1.1-26.8 2.2-39.6 3.3v55h396.4v-55 c-14.3-1.1-27.3-3.2-38.9-6.2C1184.7 2364.1 1172.8 2360 1160.7 2355z"/>
    </g>
    <g id="Star">
      <path d="M1125,945.6l252.5,494.9l573.4,75.2c92.9,12.2,130.1,120.8,62.5,182.6L1596,2079.5l101.9,541.4 c16.5,87.7-80.8,154.9-163.5,112.8L1024,2474.3l-510.5,259.4c-82.7,42.1-180-25.1-163.5-112.8L452,2079.5L34.6,1698.3 C-33,1636.6,4.1,1527.9,97,1515.8l573.4-75.2L923,945.6C963.9,865.4,1084.1,865.4,1125,945.6z"/>
    </g>
    <g id="Close_Slim">
      <path d="M1120.2,1816l779.9-779.9c26.6-26.6,26.6-69.6,0-96.2c-26.6-26.6-69.6-26.6-96.2,0L1024,1719.8L244.1,939.9 c-26.6-26.6-69.6-26.6-96.2,0c-26.6,26.6-26.6,69.6,0,96.2L927.8,1816l-779.9,779.9c-26.6,26.6-26.6,69.6,0,96.2 c13.3,13.3,30.7,19.9,48.1,19.9s34.8-6.6,48.1-19.9l779.9-779.9l779.9,779.9c13.3,13.3,30.7,19.9,48.1,19.9s34.8-6.6,48.1-19.9 c26.6-26.6,26.6-69.6,0-96.2L1120.2,1816z"/>
    </g>
    <g id="Star_Empty">
      <path d="M1024,1046.9l232.4,455.5l32.5,63.7l70.9,9.3l512.8,67.3L1504.3,1979l-56,51.1l14,74.5l91.6,486.4l-468.3-238 l-61.6-31.3l-61.6,31.3l-468.3,238l91.6-486.4l14-74.5l-56-51.1l-368.4-336.4l512.8-67.3l70.9-9.3l32.5-63.7L1024,1046.9 M1024,885.5c-40.3,0-80.6,20.1-101,60.2l-252.5,494.9L97,1515.8C4.1,1527.9-33,1636.6,34.6,1698.3L452,2079.5l-101.9,541.4 c-13,69.3,44.9,125.7,110.5,125.7c17.5,0,35.6-4,53-12.9l510.5-259.4l510.5,259.4c17.4,8.9,35.5,12.9,53,12.9 c65.6,0,123.5-56.5,110.5-125.7L1596,2079.5l417.4-381.1c67.6-61.7,30.4-170.4-62.5-182.6l-573.4-75.2L1125,945.6 C1104.5,905.5,1064.3,885.5,1024,885.5L1024,885.5z"/>
    </g>
    <g id="Block">
      <path d="M1870 1267.5l-796.8-462.2c-15.3-8.9-32.5-13.4-49.6-13.4c-17.1 0-34.3 4.4-49.6 13.4l-796.8 462.2 c-30.7 17.8-49.6 50.7-49.6 86.3v2.3c-0.1 2.1-0.1 4.2 0 6.2v915.8c0 35.6 18.9 68.5 49.6 86.3L974 2826.7 c15.3 8.9 32.5 13.3 49.6 13.3c17.1 0 34.3-4.4 49.6-13.3l796.8-462.2c30.7-17.8 49.6-50.7 49.6-86.3v-924.3 C1919.6 1318.2 1900.7 1285.3 1870 1267.5z M459.2 1320.9l545.1-316.2c11.9-6.9 26.7-6.9 38.6 0l553.2 320.9 c25.8 15 25.7 52.4-0.2 67.3l-546.3 313c-11.9 6.8-26.4 6.8-38.3 0l-552-317.7C433.4 1373.3 433.4 1335.9 459.2 1320.9z M930.1 2517c0 29.9-32.2 48.5-57.9 33.6l-538.3-312.2c-11.9-6.9-19.3-19.7-19.3-33.6v-616.5c0-29.8 32.1-48.5 57.8-33.7 l538.3 309.8c12 6.9 19.4 19.8 19.4 33.7V2517z M1117.1 1906.1c0-13.9 7.4-26.8 19.5-33.7l538.3-308.4 c25.7-14.7 57.7 3.9 57.7 33.7v607.2c0 13.9-7.4 26.7-19.3 33.6L1175 2550.6c-25.7 14.9-57.9-3.7-57.9-33.6V1906.1z" />
    </g>
    <g id="Exclamation">
      <path stroke-miterlimit="10" d="M1626.1 2840H421.9C189.8 2840 0 2650.2 0 2418.1V1213.9 C0 981.8 189.8 792 421.9 792h1204.2c232 0 421.9 189.8 421.9 421.9v1204.2C2048 2650.2 1858.2 2840 1626.1 2840z"/>
      <path class="white-fill" d="M1083.9 2456H964.1c-37.5 0-68.1-30.7-68.1-68.1v-119.7c0-37.5 30.7-68.1 68.1-68.1h119.7 c37.5 0 68.1 30.7 68.1 68.1v119.7C1152 2425.3 1121.3 2456 1083.9 2456z"/>
      <path class="white-fill" d="M1143.1 1959.4h-237c-5 0-9.2-5.3-9.2-11.8L829.1 1189c-0.1-1-0.1-2.1 0-3.2c0.7-5.6 4.5-9.9 9.1-9.9h371.6 c5 0 9.2 5.3 9.2 11.8l-66.6 759.8C1152.3 1954.1 1148.2 1959.4 1143.1 1959.4z"/>
    </g>
   <g id="Export">
    <path d="M1877.3,2157.3c-102.4,0-170.7,68.3-170.7,170.7v170.7H341.3V1133.3H512
      c102.4,0,170.7-68.3,170.7-170.7S614.4,792,512,792H341.3C153.6,792,0,945.6,0,1133.3v1365.3C0,2686.4,153.6,2840,341.3,2840
      h1365.3c187.7,0,341.3-153.6,341.3-341.3V2328C2048,2225.6,1979.7,2157.3,1877.3,2157.3z"/>
    <path d="M1877.3,792h-716.8c-119.5,0-170.7,136.5-85.3,221.9l256,256l-597.3,597.3
      c-68.3,68.3-68.3,170.7,0,238.9c34.1,34.1,68.3,51.2,119.5,51.2c51.2,0,85.3-17.1,119.5-51.2l597.3-597.3l256,256
      c85.3,85.3,221.9,34.1,221.9-85.3V962.7C2048,860.3,1979.7,792,1877.3,792z"/>
   </g>
    <g id="Link_Twisted">
      <path d="m1952.845899,1471.995314l-458.289186,452.071474c-67.319831,65.481867 -164.020635,94.071401 -257.677002,76.183169c22.653299,88.466307 -3.693376,181.969964 -69.617735,247.075378l-458.289186,452.685815c-112.134656,106.912473 -291.738702,108.432997 -405.789756,3.434668l-209.996452,-190.52046c-55.46782,-48.688657 -88.18728,-117.034995 -90.695582,-189.451188c-2.509569,-72.417419 25.406221,-142.729402 77.380923,-194.901777l458.161173,-452.439342c67.321099,-65.481867 164.020635,-94.071401 257.677002,-76.183169c-22.653299,-88.466307 3.693376,-181.969964 69.619002,-247.075378l458.287919,-452.440569c112.134656,-106.912473 291.738702,-108.432997 405.791024,-3.434668l209.741693,190.52046c55.560344,48.640834 88.374864,116.985946 90.955411,189.434021c2.580547,72.448075 -25.293417,142.816465 -77.259247,195.041567l0,0zm-1070.271749,608.118952c-33.711881,39.377899 -93.027707,47.117858 -136.319046,17.788907l-55.415854,-53.733364c-30.213694,-41.577754 -20.267941,-98.928495 22.31869,-128.690304l97.896018,-90.660031c-69.024564,-23.76187 -146.020179,-7.060628 -197.949252,42.937642l-328.055212,323.135924c-34.662476,34.783218 -53.281452,81.666866 -51.609674,129.955773c1.673046,48.28768 23.493625,93.860489 60.485691,126.321229l65.560598,59.499094c76.029811,70.174646 195.941597,69.197341 270.73817,-2.208439l327.294737,-322.768055c53.660423,-53.458689 66.620194,-133.851503 32.336688,-200.580445l-107.281554,99.002068zm851.651504,-930.641761l-65.55933,-59.621717c-76.0653,-70.141538 -195.977085,-69.109053 -270.73817,2.331062l-327.294737,323.135924c-53.304267,53.023378 -66.632868,132.641215 -33.351923,199.230366l65.433852,-60.603927c33.713149,-39.376673 93.027707,-47.116632 136.320313,-17.787681l55.5426,53.733364c30.348044,41.419571 20.690005,98.738429 -21.68496,128.690304l-57.063551,52.873778c69.59492,24.492702 147.55127,7.909178 200.1052,-42.569774l327.294737,-323.135924c34.686558,-34.804064 53.309336,-81.724499 51.612208,-130.042835c-1.697128,-48.319562 -23.567137,-93.909539 -60.616239,-126.355564l0,0.122623z"/>
    </g>
    <g id="Circular_Exclamation">
      <path class="st0" d="M1024,792C458.5,792,0,1250.5,0,1816s458.5,1024,1024,1024s1024-458.5,1024-1024S1589.5,792,1024,792z
       M1024,2608.4c-437.6,0-792.4-354.8-792.4-792.4s354.8-792.4,792.4-792.4s792.4,354.8,792.4,792.4S1461.6,2608.4,1024,2608.4z"/>
      <path class="st0" d="M1024,2138.2c-68.6,0-119.3,55.8-119.3,130.1v2.8c0,74.1,50.8,130.1,119.3,130.1
      c68.6,0,119.3-55.8,119.3-130.1v-2.8C1143.3,2194,1092.6,2138.2,1024,2138.2z"/>
      <path class="st0" d="M1024,1230.9c-86,0-153.5,103.9-145.7,224.4l29.2,452.4c5.5,84.8,56,149.7,116.5,149.7s111-64.9,116.5-149.6
      l29.2-452.4C1177.5,1334.8,1110,1230.9,1024,1230.9z"/>
    </g>
    <g id="not_scheduled">
      <polygon class="st0" points="972.5,1382.9 972.5,1980 1450.4,1980 1450.4,1741.3 1211.5,1741.3 1211.5,1382.9  "/>
      <path class="st0" d="M619.3,2235.5c22.8,22.8,52.7,34.4,82.3,34.4c30,0,60-11.7,82.7-34.4c22.8-22.8,34.4-52.8,34.4-82.3
        c0-30-11.7-60-34.4-82.8L575,1860.5l209.6-209.6c22.8-23.1,34.4-52.7,34.4-82.7s-11.6-60-34.4-82.7c-22.8-22.8-52.8-34.4-82.7-34.4
        c-29.6,0-59.6,11.7-82.4,34.4l-209.9,209.4l-210.1-209.6c-22.8-22.8-52.7-34.4-82.3-34.4c-30,0-60,11.7-82.7,34.4
        C11.8,1508.1,0.2,1538,0.2,1568c0,29.6,11.7,59.6,34.4,82.7l209.5,209.7l-209.7,210C11.7,2093.2,0,2123.2,0,2152.8
        c0,30,11.7,60,34.4,82.7c22.8,22.8,52.8,34.4,82.7,34.4c29.6,0,59.6-11.7,82.4-34.4l209.9-209.6L619.3,2235.5z"/>
      <path class="st0" d="M1092.2,904.8c-334.9,0-629.1,172.1-799.7,432.4c38.3,15.5,73.5,38.6,103.5,68.5l13.8,16.7l13.5-16.4
        c55.1-55.1,128.1-87.2,204.4-91.1c125.2-106.7,287.4-171.1,464.7-171.1c395.4,0,716.4,321.2,716.4,716.8
        c0,395.6-320.7,716.7-716.4,716.7c-177.4,0-339.8-64.5-465-171.4c-76.2-4-149.1-36-204-90.9l-13.6-16.5l-13.5,16.3
        c-30.1,30.1-65.5,53.3-103.9,68.8c170.6,260.5,465,432.4,800,432.4c528.1,0,955.3-427.5,955.6-955.5
        C2047.8,1333.2,1620.5,904.8,1092.2,904.8z"/>
    </g>
    <g id="error">
      <path id="Combined-Shape" class="st0" d="M802.8,1056.2c61.4-64,138-102,221.1-102c71.7,0,138.5,28.3,195,77.1
        c5.8-13.6,11.1-28,16.1-43c15.8-48.3,26.1-100.6,31.8-153c3.4-31.3,4.5-55,4.5-67.3h80.9c0,18.8-1.4,49.3-5.6,87.8
        c-7,63.9-19.6,127.9-39.3,188.3c-6.9,20.9-14.4,40.9-22.6,59.8c65,90.5,105.1,214.6,105.1,351.6c0,14.8-0.5,29.4-1.4,43.9H659.6
        c-0.9-14.5-1.4-29.1-1.4-43.9c0-120.9,31.2-231.7,83.2-318.3c-14.6-28.3-27.4-59.5-38.4-93.1c-19.8-60.3-32.4-124.4-39.3-188.3
        c-4.2-38.6-5.6-69.1-5.6-87.8H739c0,12.3,1.1,36.1,4.5,67.3c5.7,52.4,16,104.8,31.8,153C783.3,1012.8,792.4,1035.5,802.8,1056.2z
         M1488.7,2134.9c-21.8,87.3-58.3,166.2-105.8,232c20.7,16.1,40.1,32.6,58.3,49.6c84.2,78.9,138.5,164.7,168,252.2
        c19.5,57.7,25.5,106.9,24.1,142.9c-0.1,2.9-0.1,2.9-0.2,4.3c0,0-97.3-8.8-97.3-9.3c3.1-78.5-34.6-190.2-156.7-304.7
        c-20.2-18.9-42.2-37.3-66.3-55.1c-80.8,75.8-180.7,120.5-288.8,120.5c-108.1,0-208-44.8-288.8-120.5
        c-24.1,17.8-46.2,36.2-66.3,55.1c-122.1,114.4-159.8,226.2-156.7,304.4l-97.2,9.6c-0.1-1.5-0.1-1.5-0.2-4.3
        c-1.4-36,4.6-85.2,24.1-142.9c29.5-87.5,83.8-173.3,168-252.2c18.2-17,37.6-33.6,58.3-49.6c-47.5-65.8-84.1-144.7-105.8-232
        c-21,11.9-40,24.4-57.1,37.4c-47.5,36.1-77,73.4-92.9,109.5c-8.6,19.5-11.1,32.9-11.1,37.7H292.4c0-63.5,38.3-150.8,146.2-232.7
        c29.6-22.5,63.3-43.3,101.4-62.5c-2.5-25.4-3.8-51.3-3.8-77.6c0-28.7,1.5-57,4.5-84.7c-94.4-40.3-161.5-131.7-203.3-259.4
        c-19.8-60.3-32.4-124.4-39.3-188.3c-4.2-38.6-5.6-69.1-5.6-87.8h80.9c0,12.3,1.1,36.1,4.5,67.3c5.7,52.4,16,104.8,31.8,153
        c31.8,97.2,81.1,165.4,153.5,196c9.2-33.8,20.7-66.3,34.2-97.2h853.1c13.5,30.9,24.9,63.4,34.2,97.2
        c72.4-30.6,121.7-98.8,153.5-196c15.8-48.3,26.1-100.6,31.8-153c3.4-31.3,4.5-55,4.5-67.3h80.9c0,18.8-1.4,49.3-5.6,87.8
        c-7,63.9-19.6,127.9-39.3,188.3c-41.8,127.7-108.9,219.1-203.3,259.4c3,27.7,4.5,55.9,4.5,84.7c0,26.3-1.3,52.2-3.8,77.6
        c38.1,19.1,71.9,40,101.4,62.5c107.8,81.9,146.2,169.2,146.2,232.7h-105.5c0-4.7-2.5-18.2-11.1-37.7
        c-15.9-36.2-45.3-73.4-92.9-109.5C1528.8,2159.3,1509.8,2146.8,1488.7,2134.9z"/>
    </g>
    <g id="event_triggered">
      <polygon class="st0" points="1040,1472.1 1040,2032.1 1487.9,2032.1 1487.9,1808.2 1264,1808.2 1264,1472.1  "/>
      <path class="st0" d="M1152.1,1023.9c-259,0-492.2,109.8-655.6,285.3l133.9,187.4c123.2-151.7,311.2-248.6,521.8-248.6
        c370.7,0,671.7,301.2,671.7,672.1s-300.7,672-671.7,672c-327.3,0-600.1-234.2-659.8-544.2H768l-384-512L0,2048h265
        c61.9,434.4,435,768,886.9,768c495.1,0,895.7-400.8,896-895.8C2048.1,1425.6,1647.5,1023.9,1152.1,1023.9z"/>
    </g>
    <g id="all_checks">
      <path id="Rectangle-2" class="st0" d="M1152,938.7h768c70.7,0,128,57.3,128,128l0,0c0,70.7-57.3,128-128,128h-768
        c-70.7,0-128-57.3-128-128l0,0C1024,996,1081.3,938.7,1152,938.7z"/>
      <path id="Fill-3" class="st0" d="M256.7,1426.3L29.8,1230.6c-38.6-33.3-39.9-88.6-2.9-123.4c37-34.9,98.4-36,137-2.6l148.8,128.3
        l366.8-430.7c32.8-38.2,93.3-45.6,135.9-16.1c42.5,29.3,50.4,84,18,122.3l-432.8,508.1c-16.8,19.7-42,32-69.5,33.9
        c-2.5,0.2-4.9,0.3-7.4,0.3C298.9,1450.7,274.7,1442,256.7,1426.3z"/>
      <path id="Rectangle-2_1_" class="st0" d="M1152,1621.3h768c70.7,0,128,57.3,128,128l0,0c0,70.7-57.3,128-128,128h-768
        c-70.7,0-128-57.3-128-128l0,0C1024,1678.6,1081.3,1621.3,1152,1621.3z"/>
      <path id="Fill-3_1_" class="st0" d="M256.7,2109L29.8,1913.2c-38.6-33.3-39.9-88.6-2.9-123.4c37-34.9,98.4-36,137-2.6
        l148.8,128.3l366.8-430.7c32.8-38.2,93.3-45.6,135.9-16.1c42.5,29.3,50.4,84,18,122.3l-432.8,508.1c-16.8,19.7-42,32-69.5,33.9
        c-2.5,0.2-4.9,0.3-7.4,0.3C298.9,2133.3,274.7,2124.7,256.7,2109z"/>
      <path id="Rectangle-2_2_" class="st0" d="M1152,2304h768c70.7,0,128,57.3,128,128l0,0c0,70.7-57.3,128-128,128h-768
        c-70.7,0-128-57.3-128-128l0,0C1024,2361.3,1081.3,2304,1152,2304z"/>
      <path id="Fill-3_2_" class="st0" d="M256.7,2791.7L29.8,2595.9c-38.6-33.3-39.9-88.6-2.9-123.4c37-34.9,98.4-36,137-2.6
        l148.8,128.3l366.8-430.7c32.8-38.2,93.3-45.6,135.9-16.1c42.5,29.3,50.4,84,18,122.3l-432.8,508.1c-16.8,19.7-42,32-69.5,33.9
        c-2.5,0.2-4.9,0.3-7.4,0.3C298.9,2816,274.7,2807.3,256.7,2791.7z"/>
    </g>
    <g id="exclamation_badge">
      <rect class="icon-badge" x="0" y="0" width="12" height="12" rx="3" fill="currentColor"></rect>
      <path d="M6.14285827,7.94546989 C5.60694564,7.94546989 5.21105974,8.38171387 5.21105974,8.96163367 L5.21105974,8.98383623 C5.21105974,9.56245091 5.60821802,10 6.14285827,10 C6.6787709,10 7.0746568,9.56375602 7.0746568,8.98383623 L7.0746568,8.96163367 C7.0746568,8.38171387 6.6787709,7.94546989 6.14285827,7.94546989 Z M6.14285903,7.31423491 C5.67037881,7.31423491 5.27586053,6.89695806 5.23308718,6.35197936 L5.00478612,3.44338137 C4.94394799,2.66828849 5.47087776,2 6.14285522,2 L6.14285903,2 C6.8148403,2 7.34176626,2.66828849 7.28092814,3.44338137 L7.05263089,6.35197936 C7.00985372,6.89695806 6.61533544,7.31423491 6.14285903,7.31423491 Z" class="exclamation-point"></path>
    </g>
  </defs>
</svg>