<!-- Prism Icon -->
<svg class="floating-prism-logo" viewBox="0 0 46 47">
  <defs>
    <linearGradient id="linearGradient-1" x1='0' x2='0' y1='0' y2='1'>
      <stop offset="0%" stop-color="#83CDFF"/>
      <stop offset="100%" stop-color="#CFFFFF"/>
    </linearGradient>
    <linearGradient id='linearGradient-2' x1="3" x2='1' y1='0' y2="2">
      <stop offset="0%" stop-color="#989CFF"/>
      <stop offset="54%" stop-color="#6FABFF" />
      <stop offset="100%" stop-color="#4CB8FF" stop-opacity="0.6"/>
    </linearGradient>
    <linearGradient id="linearGradient-3" x1="1" y1="0" x2="1" y2="1.5">
      <stop offset="0%" stop-color="#63B7FF"/>
      <stop offset="100%" stop-color="#CFFFFF"/>
    </linearGradient>
    <linearGradient id="linearGradient-4" x1="0" y1="0" x2="1" y2='1.4'>
      <stop offset="0%" stop-color="#989CFF"/>
      <stop offset="100%" stop-color="#4CB8FF"/>
    </linearGradient>
  </defs>
  <path fill="url(#linearGradient-1)" d="M23 47L23 26 46 36.6C45.9 37.1 45.5 37.6 44.9 37.8L25.3 46.5C24.6 46.8 23.8 47 23 47Z"/>
  <path fill="url(#linearGradient-2)" d="M23 47L23 26 0 36.6C0.1 37.1 0.5 37.6 1 37.8L20.7 46.5C21.4 46.8 22.2 47 23 47Z" />
  <path fill="url(#linearGradient-3)" d="M45.9 37L23 26.6 23 0C23.7 0 24.3 0.3 24.7 0.9L45.8 35.5C46 36 46.1 36.5 45.9 37Z"/>
  <path fill="url(#linearGradient-4)" d="M23 0L23 26.6 0.1 37C-0.1 36.5 0 36 0.3 35.5L21.4 0.9C21.7 0.3 22.3 0 23 0L23 0Z"/>
</svg>