<svg viewBox="0 792 2048 2048" class="n-foundation-exclamation">
<g id="Exclamation">
	<path stroke-miterlimit="10" d="M1626.1 2840H421.9C189.8 2840 0 2650.2 0 2418.1V1213.9 C0 981.8 189.8 792 421.9 792h1204.2c232 0 421.9 189.8 421.9 421.9v1204.2C2048 2650.2 1858.2 2840 1626.1 2840z"/>
	<path class="path-fill-color" d="M1083.9 2456H964.1c-37.5 0-68.1-30.7-68.1-68.1v-119.7c0-37.5 30.7-68.1 68.1-68.1h119.7 c37.5 0 68.1 30.7 68.1 68.1v119.7C1152 2425.3 1121.3 2456 1083.9 2456z"/>
	<path class="path-fill-color" d="M1143.1 1959.4h-237c-5 0-9.2-5.3-9.2-11.8L829.1 1189c-0.1-1-0.1-2.1 0-3.2c0.7-5.6 4.5-9.9 9.1-9.9h371.6 c5 0 9.2 5.3 9.2 11.8l-66.6 759.8C1152.3 1954.1 1148.2 1959.4 1143.1 1959.4z"/>
</g>
</svg>