<svg viewBox="0 700 2048 2048" class="n-foundation-rf-2">
<g id="RF_2">
	<path id="XMLID_71_" class="path-fill-color" d="M1061.7,1086.7L935,1013.2c-2.4-1.4-5.2-2.1-7.9-2.1c-2.7,0-5.4,0.7-7.9,2.1l-126.6,73.5
		c-4.9,2.8-7.9,8.1-7.9,13.7v0.4c0,0.3,0,0.7,0,1v145.6c0,5.7,3,10.9,7.9,13.7l126.6,73.5c2.4,1.4,5.2,2.1,7.9,2.1
		c2.7,0,5.4-0.7,7.9-2.1l126.6-73.5c4.9-2.8,7.9-8.1,7.9-13.7v-146.9C1069.5,1094.7,1066.5,1089.5,1061.7,1086.7z M837.4,1095.1
		l86.6-50.3c1.9-1.1,4.2-1.1,6.1,0l87.9,51c4.1,2.4,4.1,8.3,0,10.7l-86.8,49.7c-1.9,1.1-4.2,1.1-6.1,0l-87.7-50.5
		C833.3,1103.5,833.3,1097.5,837.4,1095.1z M912.3,1285.3c0,4.7-5.1,7.7-9.2,5.3l-85.6-49.6c-1.9-1.1-3.1-3.1-3.1-5.3v-98
		c0-4.7,5.1-7.7,9.2-5.3l85.6,49.2c1.9,1.1,3.1,3.1,3.1,5.3V1285.3z M942,1188.1c0-2.2,1.2-4.3,3.1-5.4l85.6-49
		c4.1-2.3,9.2,0.6,9.2,5.4v96.5c0,2.2-1.2,4.2-3.1,5.3l-85.6,49.6c-4.1,2.4-9.2-0.6-9.2-5.3V1188.1z"/>
	<path id="XMLID_66_" class="path-fill-color" d="M889.8,793l-126.6-73.5c-2.4-1.4-5.2-2.1-7.9-2.1c-2.7,0-5.4,0.7-7.9,2.1L620.7,793
		c-4.9,2.8-7.9,8.1-7.9,13.7v0.4c0,0.3,0,0.7,0,1v145.6c0,5.7,3,10.9,7.9,13.7l126.6,73.5c2.4,1.4,5.2,2.1,7.9,2.1
		c2.7,0,5.4-0.7,7.9-2.1l126.6-73.5c4.9-2.8,7.9-8.1,7.9-13.7V806.7C897.6,801.1,894.6,795.9,889.8,793z M665.5,801.5l86.6-50.3
		c1.9-1.1,4.2-1.1,6.1,0l87.9,51c4.1,2.4,4.1,8.3,0,10.7l-86.8,49.7c-1.9,1.1-4.2,1.1-6.1,0l-87.7-50.5
		C661.4,809.8,661.4,803.9,665.5,801.5z M740.4,991.6c0,4.7-5.1,7.7-9.2,5.3l-85.6-49.6c-1.9-1.1-3.1-3.1-3.1-5.3v-98
		c0-4.7,5.1-7.7,9.2-5.3l85.6,49.2c1.9,1.1,3.1,3.1,3.1,5.3V991.6z M770.1,894.5c0-2.2,1.2-4.3,3.1-5.4l85.6-49
		c4.1-2.3,9.2,0.6,9.2,5.4V942c0,2.2-1.2,4.2-3.1,5.3L779.3,997c-4.1,2.4-9.2-0.6-9.2-5.3V894.5z"/>
	<path id="XMLID_61_" class="path-fill-color" d="M717.9,1086.7l-126.6-73.5c-2.4-1.4-5.2-2.1-7.9-2.1c-2.7,0-5.4,0.7-7.9,2.1l-126.6,73.5
		c-4.9,2.8-7.9,8.1-7.9,13.7v0.4c0,0.3,0,0.7,0,1v145.6c0,5.7,3,10.9,7.9,13.7l126.6,73.5c2.4,1.4,5.2,2.1,7.9,2.1
		c2.7,0,5.4-0.7,7.9-2.1l126.6-73.5c4.9-2.8,7.9-8.1,7.9-13.7v-146.9C725.8,1094.7,722.8,1089.5,717.9,1086.7z M493.6,1095.1
		l86.6-50.3c1.9-1.1,4.2-1.1,6.1,0l87.9,51c4.1,2.4,4.1,8.3,0,10.7l-86.8,49.7c-1.9,1.1-4.2,1.1-6.1,0l-87.7-50.5
		C489.5,1103.5,489.5,1097.5,493.6,1095.1z M568.5,1285.3c0,4.7-5.1,7.7-9.2,5.3l-85.6-49.6c-1.9-1.1-3.1-3.1-3.1-5.3v-98
		c0-4.7,5.1-7.7,9.2-5.3l85.6,49.2c1.9,1.1,3.1,3.1,3.1,5.3V1285.3z M598.2,1188.1c0-2.2,1.2-4.3,3.1-5.4l85.6-49
		c4.1-2.3,9.2,0.6,9.2,5.4v96.5c0,2.2-1.2,4.2-3.1,5.3l-85.6,49.6c-4.1,2.4-9.2-0.6-9.2-5.3V1188.1z"/>
	<path id="XMLID_51_" class="path-fill-color" d="M1595.1,790.4L1468.4,717c-2.4-1.4-5.2-2.1-7.9-2.1c-2.7,0-5.4,0.7-7.9,2.1L1326,790.4
		c-4.9,2.8-7.9,8.1-7.9,13.7v0.4c0,0.3,0,0.7,0,1V951c0,5.7,3,10.9,7.9,13.7l126.6,73.5c2.4,1.4,5.2,2.1,7.9,2.1
		c2.7,0,5.4-0.7,7.9-2.1l126.6-73.5c4.9-2.8,7.9-8.1,7.9-13.7V804.1C1603,798.5,1600,793.2,1595.1,790.4z M1370.8,798.9l86.6-50.3
		c1.9-1.1,4.2-1.1,6.1,0l87.9,51c4.1,2.4,4.1,8.3,0,10.7l-86.8,49.7c-1.9,1.1-4.2,1.1-6.1,0l-87.7-50.5
		C1366.8,807.2,1366.7,801.3,1370.8,798.9z M1445.7,989c0,4.7-5.1,7.7-9.2,5.3l-85.6-49.6c-1.9-1.1-3.1-3.1-3.1-5.3v-98
		c0-4.7,5.1-7.7,9.2-5.3l85.6,49.2c1.9,1.1,3.1,3.1,3.1,5.3V989z M1475.4,891.9c0-2.2,1.2-4.3,3.1-5.4l85.6-49
		c4.1-2.3,9.2,0.6,9.2,5.4v96.5c0,2.2-1.2,4.2-3.1,5.3l-85.6,49.6c-4.1,2.4-9.2-0.6-9.2-5.3V891.9z"/>
	<path id="XMLID_50_" d="M970.2,890.9h279.4c7.3,0,13.3-6,13.3-13.3l0,0c0-7.3-6-13.3-13.3-13.3H970.2
		c-7.3,0-13.3,6-13.3,13.3l0,0C957,884.9,962.9,890.9,970.2,890.9z"/>
	<g id="XMLID_42_">
		<circle id="XMLID_47_" cx="755.2" cy="877.6" r="86.1"/>
	</g>
	<path id="XMLID_41_" class="white-fill" d="M768.6,877.6l16.9-16.9c1.8-1.9,2.8-4.2,2.8-6.7s-0.9-4.8-2.8-6.7c-1.8-1.8-4.2-2.8-6.7-2.8
		c-2.4,0-4.8,0.9-6.6,2.8l-16.9,16.8l-16.9-16.9c-1.8-1.8-4.2-2.8-6.6-2.8c-2.4,0-4.8,0.9-6.7,2.8c-1.8,1.8-2.8,4.2-2.8,6.7
		c0,2.4,0.9,4.8,2.8,6.7l16.9,16.9l-16.9,16.9c-1.8,1.8-2.8,4.2-2.8,6.6c0,2.4,0.9,4.8,2.8,6.7c1.8,1.8,4.2,2.8,6.7,2.8
		c2.4,0,4.8-0.9,6.6-2.8l16.9-16.9l16.9,16.9c1.8,1.8,4.2,2.8,6.6,2.8c2.4,0,4.8-0.9,6.7-2.8c1.8-1.8,2.8-4.2,2.8-6.6
		c0-2.4-0.9-4.8-2.8-6.7L768.6,877.6z"/>
</g>
</svg>