<svg viewBox="0 700 2048 2048" class="n-foundation-rf-3">
<g id="RF_3">
	<path id="XMLID_12_" class="path-fill-color" d="M1328.4,1086.7l-126.6-73.5c-2.4-1.4-5.2-2.1-7.9-2.1c-2.7,0-5.4,0.7-7.9,2.1l-126.6,73.5
		c-4.9,2.8-7.9,8.1-7.9,13.7v0.4c0,0.3,0,0.7,0,1v145.6c0,5.7,3,10.9,7.9,13.7l126.6,73.5c2.4,1.4,5.2,2.1,7.9,2.1
		c2.7,0,5.4-0.7,7.9-2.1l126.6-73.5c4.9-2.8,7.9-8.1,7.9-13.7v-146.9C1336.3,1094.7,1333.2,1089.5,1328.4,1086.7z M1104.1,1095.1
		l86.6-50.3c1.9-1.1,4.2-1.1,6.1,0l87.9,51c4.1,2.4,4.1,8.3,0,10.7l-86.8,49.7c-1.9,1.1-4.2,1.1-6.1,0l-87.7-50.5
		C1100,1103.5,1100,1097.5,1104.1,1095.1z M1179,1285.3c0,4.7-5.1,7.7-9.2,5.3l-85.6-49.6c-1.9-1.1-3.1-3.1-3.1-5.3v-98
		c0-4.7,5.1-7.7,9.2-5.3l85.6,49.2c1.9,1.1,3.1,3.1,3.1,5.3V1285.3z M1208.7,1188.1c0-2.2,1.2-4.3,3.1-5.4l85.6-49
		c4.1-2.3,9.2,0.6,9.2,5.4v96.5c0,2.2-1.2,4.2-3.1,5.3l-85.6,49.6c-4.1,2.4-9.2-0.6-9.2-5.3V1188.1z"/>
	<path id="XMLID_14_" class="path-fill-color" d="M1156.5,793l-126.6-73.5c-2.4-1.4-5.2-2.1-7.9-2.1c-2.7,0-5.4,0.7-7.9,2.1L887.4,793
		c-4.9,2.8-7.9,8.1-7.9,13.7v0.4c0,0.3,0,0.7,0,1v145.6c0,5.7,3,10.9,7.9,13.7l126.6,73.5c2.4,1.4,5.2,2.1,7.9,2.1
		c2.7,0,5.4-0.7,7.9-2.1l126.6-73.5c4.9-2.8,7.9-8.1,7.9-13.7V806.7C1164.4,801.1,1161.4,795.9,1156.5,793z M932.2,801.5l86.6-50.3
		c1.9-1.1,4.2-1.1,6.1,0l87.9,51c4.1,2.4,4.1,8.3,0,10.7l-86.8,49.7c-1.9,1.1-4.2,1.1-6.1,0l-87.7-50.5
		C928.2,809.8,928.1,803.9,932.2,801.5z M1007.1,991.6c0,4.7-5.1,7.7-9.2,5.3l-85.6-49.6c-1.9-1.1-3.1-3.1-3.1-5.3v-98
		c0-4.7,5.1-7.7,9.2-5.3l85.6,49.2c1.9,1.1,3.1,3.1,3.1,5.3V991.6z M1036.8,894.5c0-2.2,1.2-4.3,3.1-5.4l85.6-49
		c4.1-2.3,9.2,0.6,9.2,5.4V942c0,2.2-1.2,4.2-3.1,5.3L1046,997c-4.1,2.4-9.2-0.6-9.2-5.3V894.5z"/>
	<path id="XMLID_19_" class="path-fill-color" d="M984.6,1086.7L858,1013.2c-2.4-1.4-5.2-2.1-7.9-2.1c-2.7,0-5.4,0.7-7.9,2.1l-126.6,73.5
		c-4.9,2.8-7.9,8.1-7.9,13.7v0.4c0,0.3,0,0.7,0,1v145.6c0,5.7,3,10.9,7.9,13.7l126.6,73.5c2.4,1.4,5.2,2.1,7.9,2.1
		c2.7,0,5.4-0.7,7.9-2.1l126.6-73.5c4.9-2.8,7.9-8.1,7.9-13.7v-146.9C992.5,1094.7,989.5,1089.5,984.6,1086.7z M760.4,1095.1
		l86.6-50.3c1.9-1.1,4.2-1.1,6.1,0l87.9,51c4.1,2.4,4.1,8.3,0,10.7l-86.8,49.7c-1.9,1.1-4.2,1.1-6.1,0l-87.7-50.5
		C756.3,1103.5,756.3,1097.5,760.4,1095.1z M835.2,1285.3c0,4.7-5.1,7.7-9.2,5.3l-85.6-49.6c-1.9-1.1-3.1-3.1-3.1-5.3v-98
		c0-4.7,5.1-7.7,9.2-5.3l85.6,49.2c1.9,1.1,3.1,3.1,3.1,5.3V1285.3z M864.9,1188.1c0-2.2,1.2-4.3,3.1-5.4l85.6-49
		c4.1-2.3,9.2,0.6,9.2,5.4v96.5c0,2.2-1.2,4.2-3.1,5.3l-85.6,49.6c-4.1,2.4-9.2-0.6-9.2-5.3V1188.1z"/>
	<path id="XMLID_24_" class="path-fill-color" d="M277,1086.7l-126.6-73.5c-2.4-1.4-5.2-2.1-7.9-2.1c-2.7,0-5.4,0.7-7.9,2.1L7.9,1086.7
		c-4.9,2.8-7.9,8.1-7.9,13.7v0.4c0,0.3,0,0.7,0,1v145.6c0,5.7,3,10.9,7.9,13.7l126.6,73.5c2.4,1.4,5.2,2.1,7.9,2.1
		c2.7,0,5.4-0.7,7.9-2.1L277,1261c4.9-2.8,7.9-8.1,7.9-13.7v-146.9C284.8,1094.7,281.8,1089.5,277,1086.7z M52.7,1095.1l86.6-50.3
		c1.9-1.1,4.2-1.1,6.1,0l87.9,51c4.1,2.4,4.1,8.3,0,10.7l-86.8,49.7c-1.9,1.1-4.2,1.1-6.1,0l-87.7-50.5
		C48.6,1103.5,48.6,1097.5,52.7,1095.1z M127.6,1285.3c0,4.7-5.1,7.7-9.2,5.3L32.8,1241c-1.9-1.1-3.1-3.1-3.1-5.3v-98
		c0-4.7,5.1-7.7,9.2-5.3l85.6,49.2c1.9,1.1,3.1,3.1,3.1,5.3V1285.3z M157.3,1188.1c0-2.2,1.2-4.3,3.1-5.4l85.6-49
		c4.1-2.3,9.2,0.6,9.2,5.4v96.5c0,2.2-1.2,4.2-3.1,5.3l-85.6,49.6c-4.1,2.4-9.2-0.6-9.2-5.3V1188.1z"/>
	<path id="XMLID_29_" class="path-fill-color" d="M2039.5,793l-126.6-73.5c-2.4-1.4-5.2-2.1-7.9-2.1c-2.7,0-5.4,0.7-7.9,2.1L1770.5,793
		c-4.9,2.8-7.9,8.1-7.9,13.7v0.4c0,0.3,0,0.7,0,1v145.6c0,5.7,3,10.9,7.9,13.7l126.6,73.5c2.4,1.4,5.2,2.1,7.9,2.1
		c2.7,0,5.4-0.7,7.9-2.1l126.6-73.5c4.9-2.8,7.9-8.1,7.9-13.7V806.7C2047.4,801.1,2044.4,795.9,2039.5,793z M1815.3,801.5l86.6-50.3
		c1.9-1.1,4.2-1.1,6.1,0l87.9,51c4.1,2.4,4.1,8.3,0,10.7l-86.8,49.7c-1.9,1.1-4.2,1.1-6.1,0l-87.7-50.5
		C1811.2,809.8,1811.2,803.9,1815.3,801.5z M1890.1,991.6c0,4.7-5.1,7.7-9.2,5.3l-85.6-49.6c-1.9-1.1-3.1-3.1-3.1-5.3v-98
		c0-4.7,5.1-7.7,9.2-5.3l85.6,49.2c1.9,1.1,3.1,3.1,3.1,5.3V991.6z M1919.9,894.5c0-2.2,1.2-4.3,3.1-5.4l85.6-49
		c4.1-2.3,9.2,0.6,9.2,5.4V942c0,2.2-1.2,4.2-3.1,5.3l-85.6,49.6c-4.1,2.4-9.2-0.6-9.2-5.3V894.5z"/>
	<path id="XMLID_7_" d="M1235.6,890.9h455.2c6.5,0,11.9-5.3,11.9-11.9v-2.8c0-6.5-5.3-11.9-11.9-11.9h-455.2
		c-6.5,0-11.9,5.3-11.9,11.9v2.8C1223.7,885.5,1229,890.9,1235.6,890.9z"/>
	<path id="XMLID_38_" d="M354,1193.8h284.6c5.2,0,9.5-4.3,9.5-9.5v-7.6c0-5.2-4.3-9.5-9.5-9.5H354
		c-5.2,0-9.5,4.3-9.5,9.5v7.6C344.5,1189.6,348.8,1193.8,354,1193.8z"/>
	<g id="XMLID_13_">
		<circle id="XMLID_35_" cx="850.4" cy="1180.6" r="86.1"/>
	</g>
	<path id="XMLID_10_" class="white-fill" d="M863.7,1180.6l16.9-16.9c1.8-1.9,2.8-4.2,2.8-6.7s-0.9-4.8-2.8-6.7
		c-1.8-1.8-4.2-2.8-6.7-2.8c-2.4,0-4.8,0.9-6.6,2.8l-16.9,16.8l-16.9-16.9c-1.8-1.8-4.2-2.8-6.6-2.8c-2.4,0-4.8,0.9-6.7,2.8
		c-1.8,1.8-2.8,4.2-2.8,6.7c0,2.4,0.9,4.8,2.8,6.7l16.9,16.9l-16.9,16.9c-1.8,1.8-2.8,4.2-2.8,6.6c0,2.4,0.9,4.8,2.8,6.7
		c1.8,1.8,4.2,2.8,6.7,2.8c2.4,0,4.8-0.9,6.6-2.8l16.9-16.9l16.9,16.9c1.8,1.8,4.2,2.8,6.6,2.8c2.4,0,4.8-0.9,6.7-2.8
		c1.8-1.8,2.8-4.2,2.8-6.6c0-2.4-0.9-4.8-2.8-6.7L863.7,1180.6z"/>
	<g id="XMLID_34_">
		<circle id="XMLID_36_" cx="1021.9" cy="877.6" r="86.1"/>
	</g>
	<path id="XMLID_9_" class="white-fill" d="M1035.3,877.6l16.9-16.9c1.8-1.9,2.8-4.2,2.8-6.7s-0.9-4.8-2.8-6.7c-1.8-1.8-4.2-2.8-6.7-2.8
		c-2.4,0-4.8,0.9-6.6,2.8l-16.9,16.8l-16.9-16.9c-1.8-1.8-4.2-2.8-6.6-2.8c-2.4,0-4.8,0.9-6.7,2.8c-1.8,1.8-2.8,4.2-2.8,6.7
		c0,2.4,0.9,4.8,2.8,6.7l16.9,16.9l-16.9,16.9c-1.8,1.8-2.8,4.2-2.8,6.6c0,2.4,0.9,4.8,2.8,6.7c1.8,1.8,4.2,2.8,6.7,2.8
		c2.4,0,4.8-0.9,6.6-2.8l16.9-16.9l16.9,16.9c1.8,1.8,4.2,2.8,6.6,2.8c2.4,0,4.8-0.9,6.7-2.8c1.8-1.8,2.8-4.2,2.8-6.6
		c0-2.4-0.9-4.8-2.8-6.7L1035.3,877.6z"/>
</g>
</svg>