<svg viewBox="0 792 2048 2048" class="n-foundation-icon">
<g id="Block">
	<path d="M1870 1267.5l-796.8-462.2c-15.3-8.9-32.5-13.4-49.6-13.4c-17.1 0-34.3 4.4-49.6 13.4l-796.8 462.2 c-30.7 17.8-49.6 50.7-49.6 86.3v2.3c-0.1 2.1-0.1 4.2 0 6.2v915.8c0 35.6 18.9 68.5 49.6 86.3L974 2826.7 c15.3 8.9 32.5 13.3 49.6 13.3c17.1 0 34.3-4.4 49.6-13.3l796.8-462.2c30.7-17.8 49.6-50.7 49.6-86.3v-924.3 C1919.6 1318.2 1900.7 1285.3 1870 1267.5z M459.2 1320.9l545.1-316.2c11.9-6.9 26.7-6.9 38.6 0l553.2 320.9 c25.8 15 25.7 52.4-0.2 67.3l-546.3 313c-11.9 6.8-26.4 6.8-38.3 0l-552-317.7C433.4 1373.3 433.4 1335.9 459.2 1320.9z M930.1 2517c0 29.9-32.2 48.5-57.9 33.6l-538.3-312.2c-11.9-6.9-19.3-19.7-19.3-33.6v-616.5c0-29.8 32.1-48.5 57.8-33.7 l538.3 309.8c12 6.9 19.4 19.8 19.4 33.7V2517z M1117.1 1906.1c0-13.9 7.4-26.8 19.5-33.7l538.3-308.4 c25.7-14.7 57.7 3.9 57.7 33.7v607.2c0 13.9-7.4 26.7-19.3 33.6L1175 2550.6c-25.7 14.9-57.9-3.7-57.9-33.6V1906.1z" />
</g>
</svg>