<svg viewBox="0 792 2048 2048" class="n-foundation-icon">
<g id="circle-logo">
	<path d="M1018.5 1818"/>
	<path d="M296 1403"/>
	<path d="M1872.7 1267.5l-797.9-462.2c-15.4-8.9-32.5-13.4-49.7-13.4c-17.1 0-34.3 4.4-49.7 13.4l-797.9 462.2 c-30.7 17.8-49.7 50.7-49.7 86.3v2.3c-0.1 2.1-0.1 4.2 0 6.2v915.8c0 35.6 18.9 68.5 49.7 86.3l797.9 462.2 c15.4 8.9 32.5 13.3 49.7 13.3c17.2 0 34.3-4.4 49.7-13.3l797.9-462.2c30.7-17.8 49.7-50.7 49.7-86.3v-924.3 C1922.4 1318.2 1903.5 1285.3 1872.7 1267.5z M460 1320.9l545.8-316.2c12-6.9 26.7-6.9 38.7 0l553.9 320.9 c25.9 15 25.7 52.4-0.2 67.3l-112 64.1c-14.3-18.2-29.8-35.6-46.4-52.1c-53.3-53.2-115.4-95-184.6-124.3 c-71.7-30.3-147.7-45.6-226.1-45.6s-154.4 15.3-226.1 45.6c-69.2 29.2-131.3 71-184.6 124.3c-15.6 15.6-30.3 32-43.9 49.1 l-114.4-65.8C434.3 1373.3 434.2 1335.9 460 1320.9z M1029.2 2208c-105.1 0-204-40.9-278.3-115.1S635.6 1920 635.6 1815 s40.9-203.7 115.3-277.9S924.1 1422 1029.2 1422s204 40.9 278.3 115.1c74.3 74.2 115.3 172.9 115.3 277.9s-40.9 203.7-115.3 277.9 C1233.1 2167.2 1134.3 2208 1029.2 2208z M873.6 2550.6l-539-312.2c-12-6.9-19.3-19.7-19.3-33.6v-616.5c0-29.8 32.1-48.5 57.9-33.7 l109.7 63.1c-22.9 63.1-34.5 129.3-34.5 197.3c0 78.3 15.4 154.2 45.7 225.8c29.3 69.1 71.1 131.1 124.4 184.3 c53.3 53.2 115.4 95 184.6 124.3c41.5 17.5 84.5 30 128.5 37.5V2517C931.6 2546.9 899.3 2565.6 873.6 2550.6z M1735.1 2204.8 c0 13.9-7.4 26.7-19.3 33.6l-539 312.2c-25.8 14.9-58-3.7-58-33.6v-128.9c46.8-7.2 92.5-20.2 136.4-38.8 c69.2-29.2 131.3-71 184.6-124.3c53.3-53.2 95.2-115.3 124.4-184.3c30.3-71.6 45.7-147.5 45.7-225.8c0-66.6-11.1-131.6-33.1-193.5 l100.5-57.5c25.8-14.7 57.8 3.9 57.8 33.7V2204.8z"/>
</g>
</svg>
