<svg viewBox="0 -1 1025 512" version="1.1" xmlns="http://www.w3.org/2000/svg" xmlns:xlink="http://www.w3.org/1999/xlink" class="hx-logo">
    <g id="hx-logo-hx">
        <path d="M540.8,109.9 L691.7,256.1 L540.8,402.4 C515.1,427.3 515.1,467.6 540.8,492.6 C566.5,517.5 608.2,517.5 633.9,492.6 L831.3,301.2 C857,276.3 857,236 831.3,211 L633.8,19.6 C620.9,7.1 604,0.9 587.3,0.9 C570.3,0.9 553.6,7.1 540.8,19.6 C515.1,44.5 515.1,84.9 540.8,109.9 L540.8,109.9 Z"></path>
        <path d="M449.9,56.2 C449.9,28 419.2,4.3 389.2,4.3 C359.9,4.3 329.2,28 329.2,56.2 L329.2,205.6 L120,205.6 L120,56.2 C120,28 89.2,4.3 60.7,4.3 C30.7,4.3 0,28 0,56.2 L0,456 C0,484.2 30.7,507.9 59.2,507.9 C89.2,507.9 119.9,484.2 119.9,456 L119.9,309.1 L329.2,309.1 L329.2,455.2 C329.2,484.1 359.9,507.9 389.2,507.9 C419.2,507.9 449.9,484.2 449.9,455.2 L449.9,56.2 L449.9,56.2 Z"></path>
        <g id="hx-logo-x" class="hx">
            <path d="M86,307.6 C79.3,323 69.6,337.2 57,349.3 L0,404.6 L90.7,492.5 C116.4,517.4 158.1,517.4 183.8,492.5 C209.5,467.5 209.5,427.2 183.8,402.3 L86,307.6 L86,307.6 Z"></path>
            <path d="M57.1,162.8 C69.6,175 79.3,189.1 86,204.6 L183.7,109.9 C209.4,84.9 209.4,44.6 183.7,19.7 C170.9,7.1 154.2,0.9 137.2,0.9 C120.5,0.9 103.5,7.1 90.7,19.6 L0,107.5 L57.1,162.8 L57.1,162.8 Z"></path>
        </g>
    </g>
</svg>