<svg viewBox="0 0 1600 534" version="1.1" xmlns="http://www.w3.org/2000/svg" xmlns:xlink="http://www.w3.org/1999/xlink" class="lenovo-logo">
    <g id="LenovoLogo">
        <polygon points="0.06 533.94 1600 533.94 1600 0.667 0.06 0.667"></polygon>
        <path d="M697.045,180.412 C673.417,180.412 646.539,191.366 630.115,213.298 L630.128,213.259 L630.115,213.274 L630.128,183.851 L573.754,183.851 L573.754,389.122 L630.115,389.122 L630.115,272.326 C630.115,251.302 646.41,228.959 676.586,228.959 C699.911,228.959 724.042,245.177 724.042,272.326 L724.042,389.122 L780.408,389.122 L780.408,261.876 C780.408,214.673 746.636,180.412 697.045,180.412"></path>
        <polyline  points="1181.02 183.866 1130.06 323.693 1079.1 183.866 1014.72 183.866 1099.18 389.061 1160.94 389.061 1245.4 183.866 1181.02 183.866"></polyline>
        <path d="M405.483,245.704 C415.08,232.818 430.374,225.254 448.839,225.254 C469.154,225.254 484.564,236.854 492.526,253.969 L394.055,294.821 C391.36,273.863 396.725,257.463 405.483,245.704 L405.483,245.704 Z M513.773,326.014 C490.046,343.567 476.492,347.763 454.86,347.763 C435.39,347.763 420.152,341.718 409.403,331.116 L553.503,271.334 C550.361,249.054 541.909,229.161 528.894,214.03 C509.963,192.034 481.937,180.403 447.823,180.403 C385.842,180.403 339.105,226.13 339.105,286.517 C339.105,348.467 385.946,392.613 454.027,392.613 C492.171,392.613 531.172,374.533 549.411,353.416 L513.773,326.014 L513.773,326.014 Z"></path>
        <polyline points="333.733 337.369 205.619 337.369 205.619 122.473 148.494 122.473 148.494 389.122 333.733 389.122 333.733 337.369"></polyline>
        <path d="M1346.61,228.705 C1315.13,228.705 1292.28,252.557 1292.28,286.498 C1292.28,318.898 1316.49,344.284 1347.37,344.284 C1378.85,344.284 1401.7,319.773 1401.7,286.498 C1401.7,254.091 1377.5,228.705 1346.61,228.705 M1346.61,392.583 C1284.96,392.583 1236.67,346.66 1236.67,286.498 C1236.67,227.008 1285.3,180.403 1347.37,180.403 C1409.01,180.403 1457.3,226.326 1457.3,286.498 C1457.3,345.974 1408.68,392.583 1346.61,392.583"></path>
        <path d="M912.644,228.705 C881.163,228.705 858.319,252.557 858.319,286.498 C858.319,318.898 882.523,344.284 913.406,344.284 C944.887,344.284 967.738,319.773 967.738,286.498 C967.738,254.091 943.533,228.705 912.644,228.705 M912.644,392.583 C851,392.583 802.707,346.66 802.707,286.498 C802.707,227.008 851.333,180.403 913.406,180.403 C975.044,180.403 1023.34,226.326 1023.34,286.498 C1023.34,345.974 974.714,392.583 912.644,392.583"></path>
        <path d="M1486.11,359.571 L1492.15,359.571 L1501.08,373.578 L1510,359.571 L1515.86,359.571 L1515.86,389.122 L1510.39,389.122 L1510.39,368.109 L1501.27,382.312 L1500.69,382.312 L1491.58,368.109 L1491.58,389.122 L1486.11,389.122 L1486.11,359.571 L1486.11,359.571 Z M1465,364.752 L1455.89,364.752 L1455.89,359.571 L1479.78,359.571 L1479.78,364.752 L1470.66,364.752 L1470.66,389.122 L1465,389.122 L1465,364.752 L1465,364.752 Z"></path>
    </g>
</svg>