<svg id="paper" class="license-paper" xmlns="http://www.w3.org/2000/svg" width="181" height="109" viewBox="-2 -2 183 111">
  <path id="p-back" class="cls-1" d="M0,7.7L148.028-.015l4.965,94.28L4.962,101.985Z"/>
  <path id="s" class="cls-2" d="M15,18H148.977l0.016,74.265L15,99.461V18Z"/>
  <path id="p" class="cls-3" d="M22,14H170v94H22V14Z"/>
  <path id="f" class="cls-4" d="M28,20H164v82H28V20Zm1,1H163v80H29V21Z"/>
  <path id="l" class="cls-4" d="M37,29H70v1H37V29Zm85,0h33v1H122V29ZM70,28h1v3H70V28Zm51,0h1v3h-1V28ZM37,92H80v1H37V92Zm75,0h43v1H112V92ZM80,91h1v3H80V91Zm31,0h1v3h-1V91Z"/>
  <path id="o" class="cls-5" d="M90.5,91.06a1.471,1.471,0,0,0-1.528,1.249,0.85,0.85,0,0,0,.328.714,0.246,0.246,0,0,1-.019.389,0.9,0.9,0,0,1-.631.318,0.741,0.741,0,0,1-.662-0.8,2.091,2.091,0,0,1,.928-1.5,3.723,3.723,0,0,1,2.215-.866,5.914,5.914,0,0,1,3.885-1.574,6.622,6.622,0,0,1,2.437.535c0.421,0.166,2.054.867,3.211,1.389a8.6,8.6,0,0,0,2.975.829,1.2,1.2,0,0,0,1.405-.937,0.674,0.674,0,0,0-.248-0.561,0.386,0.386,0,0,1-.142-0.261,0.691,0.691,0,0,1,.643-0.675,0.788,0.788,0,0,1,.7.828,2.469,2.469,0,0,1-1.72,1.918,5.142,5.142,0,0,1-3.81,1.956,8.408,8.408,0,0,1-2.957-.688c-0.879-.332-3.637-1.491-4.745-1.854a6.807,6.807,0,0,0-2.258-.408H90.5Zm3.557-1.542a2.428,2.428,0,0,0-2.048,1.09,7.254,7.254,0,0,1,2.419.567c1.206,0.421,3.433,1.4,4.213,1.676a8,8,0,0,0,2.517.535,2.3,2.3,0,0,0,2.178-1.115,5.4,5.4,0,0,1-2.864-.5c-0.916-.363-3.44-1.554-4.294-1.854a6.413,6.413,0,0,0-2.109-.4H94.062Z"/>
  <path id="NUTANIX" class="cls-5" d="M84.61,31.448V27.427A0.449,0.449,0,0,0,84.149,27a0.461,0.461,0,0,0-.485.424V30.4l-2.528-3.158A0.677,0.677,0,0,0,80.619,27a0.587,0.587,0,0,0-.612.548v3.984a0.45,0.45,0,0,0,.461.431,0.462,0.462,0,0,0,.485-0.431V28.473l2.6,3.275a0.618,0.618,0,0,0,.477.219A0.549,0.549,0,0,0,84.61,31.448Zm5.735-1.455V27.435A0.452,0.452,0,0,0,89.877,27a0.464,0.464,0,0,0-.493.431v2.537a1.346,1.346,0,0,1-2.687,0V27.435A0.452,0.452,0,0,0,86.228,27a0.457,0.457,0,0,0-.485.431V30c0,1.2.755,2.01,2.3,2.01S90.346,31.207,90.346,29.993Zm4.98-2.559a0.4,0.4,0,0,0-.413-0.387H91.494a0.385,0.385,0,1,0,0,.768h1.232v3.721a0.452,0.452,0,0,0,.469.431,0.462,0.462,0,0,0,.485-0.431V27.815h1.232A0.4,0.4,0,0,0,95.326,27.435Zm4.788,4.064a0.573,0.573,0,0,0-.031-0.161l-1.662-3.875a0.824,0.824,0,0,0-.8-0.46,0.8,0.8,0,0,0-.739.46l-1.654,3.875a0.3,0.3,0,0,0-.04.161,0.487,0.487,0,0,0,.509.468,0.494,0.494,0,0,0,.461-0.285L96.449,31h2.417l0.278,0.68a0.5,0.5,0,0,0,.461.285A0.491,0.491,0,0,0,100.114,31.5ZM98.6,30.227H96.712l0.946-2.3Zm6.912,1.221V27.427A0.449,0.449,0,0,0,105.047,27a0.461,0.461,0,0,0-.485.424V30.4l-2.529-3.158A0.676,0.676,0,0,0,101.517,27a0.588,0.588,0,0,0-.613.548v3.984a0.45,0.45,0,0,0,.462.431,0.462,0.462,0,0,0,.485-0.431V28.473l2.6,3.275a0.62,0.62,0,0,0,.477.219A0.55,0.55,0,0,0,105.508,31.448Zm2.078,0.088V27.427a0.476,0.476,0,0,0-.946,0v4.108a0.45,0.45,0,0,0,.461.431A0.462,0.462,0,0,0,107.586,31.536Zm5.4,0.007a0.383,0.383,0,0,0-.079-0.241l-1.5-1.886,1.384-1.762a0.368,0.368,0,0,0,.079-0.234,0.445,0.445,0,0,0-.469-0.409,0.464,0.464,0,0,0-.382.183l-1.24,1.63-1.248-1.63a0.5,0.5,0,0,0-.39-0.183,0.442,0.442,0,0,0-.461.417,0.358,0.358,0,0,0,.08.227l1.391,1.769-1.5,1.886a0.389,0.389,0,0,0-.079.241,0.432,0.432,0,0,0,.453.417A0.442,0.442,0,0,0,109.4,31.8l1.383-1.769,1.368,1.762a0.461,0.461,0,0,0,.373.175A0.447,0.447,0,0,0,112.985,31.543Z"/>
  <path id="p" class="cls-0 main-border" d="M171,109H23v-6.9l-17.038.889L1,8.7l148.031-7.72L149.766,15H171v94Z"/>
  <rect id="c" class="cls-6 status-circle" x="157" y="5" width="24" height="24" rx="12" ry="12"/>
  <path id="t" class="cls-7 check" d="M165.225,17.483l3.148,3.247,5.4-7.459"/>
  <path id="l-2" data-name="l" class="cls-7 cross" d="M165,13l8,8"/>
  <path id="l-3" data-name="l" class="cls-7 cross" d="M173,13l-8,8"/>
  <path id="_" data-name="!" class="cls-10 exclamation" d="M170.587,11.505a1.51,1.51,0,0,0-1.573-1.5,1.542,1.542,0,0,0-1.639,1.5c0,0.41.24,3.692,0.349,5.966A1.2,1.2,0,0,0,168.97,18.6a1.217,1.217,0,0,0,1.29-1.126C170.369,15.2,170.587,11.915,170.587,11.505Zm0.175,10.855a1.737,1.737,0,0,0-1.77-1.659A1.653,1.653,0,1,0,170.762,22.36Z"/>
</svg>
