<svg xmlns="http://www.w3.org/2000/svg" xmlns:xlink="http://www.w3.org/1999/xlink" version="1.1" id="Metis" x="0px" y="0px" viewBox="0 792 2048 2048" enable-background="new 0 792 2048 2048" xml:space="preserve">
<g>
	<path d="M1934.7 2840H113.3C50.7 2840 0 2789.3 0 2726.7V905.3C0 842.7 50.7 792 113.3 792h1821.3c62.6 0 113.3 50.7 113.3 113.3 v1821.3C2048 2789.3 1997.3 2840 1934.7 2840z M340.9 2615.4h1366.2c62.6 0 116.9-55.9 116.9-118.4l0.4-1364.1 c0-62.6-54.7-116.3-117.3-116.3H340.9c-62.6 0-116.3 53.7-116.3 116.3v1366.2C224.6 2561.7 278.3 2615.4 340.9 2615.4z"/>
</g>
<path d="M1326.6 2328c-11.9 0-23.9-4.6-33-13.7l-67.5-67.5c-18.2-18.2-18.2-47.7 0-65.9c18.2-18.2 47.7-18.2 65.9 0l34.5 34.5 l129.8-129.8c18.2-18.2 47.7-18.2 65.9 0c18.2 18.2 18.2 47.7 0 65.9l-162.8 162.8C1350.5 2323.4 1338.6 2328 1326.6 2328z"/>
<path d="M1326.6 1939c-11.9 0-23.9-4.6-33-13.7l-67.5-67.5c-18.2-18.2-18.2-47.7 0-65.9c18.2-18.2 47.7-18.2 65.9 0l34.5 34.5 l129.8-129.8c18.2-18.2 47.7-18.2 65.9 0c18.2 18.2 18.2 47.7 0 65.9l-162.8 162.8C1350.5 1934.4 1338.6 1939 1326.6 1939z"/>
<path d="M1472.6 1499H578c-35.9 0-65-29.1-65-65s29.1-65 65-65h894.6c35.9 0 65 29.1 65 65S1508.5 1499 1472.6 1499z"/>
<path d="M1022.6 1881H578c-35.9 0-65-29.1-65-65s29.1-65 65-65h444.6c35.9 0 65 29.1 65 65S1058.5 1881 1022.6 1881z"/>
<path d="M1022.6 2265H578c-35.9 0-65-29.1-65-65s29.1-65 65-65h444.6c35.9 0 65 29.1 65 65S1058.5 2265 1022.6 2265z"/>
</svg>
