<svg class="no-case-svg"
  viewBox="0 0 160 102" version="1.1"
  xmlns="http://www.w3.org/2000/svg" xmlns:xlink="http://www.w3.org/1999/xlink">
  <title>Page 1</title>
  <desc>Created with Sketch.</desc>
  <defs>
      <path d="M4.52544318,2.21298214 L4.52544318,4.99769643 L1.75326136,
      4.99769643 C1.00096591,4.99769643 0.374352273,5.61992857 0.374352273,
      6.38825 C0.374352273,7.16108036 0.991988636,7.77790179 1.75326136,
      7.77790179 L4.52544318,7.77790179 L4.52544318,10.5617143 C4.52544318,
      11.3183125 5.144875,11.9486607 5.90973864,11.9486607 C6.67998864,
      11.9486607 7.29403409,11.3282321 7.29403409,10.5617143 L7.29403409,
      7.77790179 L10.0662159,7.77790179 C10.8185114,7.77790179 11.4460227,
      7.15566964 11.4460227,6.38825 C11.4460227,5.61451786 10.8283864,
      4.99769643 10.0662159,4.99769643 L7.29403409,4.99769643 L7.29403409,
      2.21298214 C7.29403409,1.45638393 6.67460227,0.8269375 5.90973864,
      0.8269375 C5.14038636,0.8269375 4.52544318,1.44736607 4.52544318,
      2.21298214 Z" id="path-1"></path>
  </defs>
  <g id="Page-1" stroke="none" stroke-width="1" fill="none"
    fill-rule="evenodd">
    <g id="06" transform="translate(-560.000000, -310.000000)">
      <g id="Page-1" transform="translate(561.000000, 310.000000)">
        <g id="Group-15" transform="translate(0.000000, 0.751187)">
          <path d="M135.340017,26.136275 C135.467494,26.1272571 135.593176,
          26.1245518 135.719756,26.1182393 L134.129881,4.39873036 C133.945847,
          1.87914107 131.816437,-0.0164125 129.373722,0.163944643 L4.93974432,
          9.35494464 C2.49792614,9.53530179 0.667460227,
          11.7230339 0.851494318,14.2426232 L2.48894886,
          36.6033018 C2.61463068,36.5915786 2.73941477,36.5753464 2.86689205,
          36.5654268 C12.1951761,35.8764625 20.3276875,43.1178018 21.0324034,
          52.7389536 C21.7362216,62.3610071 14.7456193,70.7187571 5.41733523,
          71.4077214 C5.28985795,71.4176411 5.16417614,71.4194446 5.03759659,
          71.4257571 L6.49011932,91.2758643 C6.67505114,93.7945518 8.80446023,
          95.6901054 11.2462784,95.5097482 L135.680256,86.31965 C138.122972,
          86.1392929 139.953438,83.9506589 139.768506,81.4310696 L138.268403,
          60.9406946 C138.142722,60.9524179 138.017938,60.96865 137.89046,
          60.9785696 C128.562176,61.6675339 120.429665,54.4261946 119.724949,
          44.8050429 C119.021131,35.1838911 126.011733,26.8252393 135.340017,
          26.136275" id="Fill-1" fill="#F9F9FA"></path>
          <path d="M135.340017,26.136275 C135.467494,26.1272571 135.593176,
          26.1245518 135.719756,26.1182393 L134.129881,4.39873036 C133.945847,
          1.87914107 131.816437,-0.0164125 129.373722,0.163944643 L4.93974432,
          9.35494464 C2.49792614,9.53530179 0.667460227,
          11.7230339 0.851494318,14.2426232 L2.48894886,
          36.6033018 C2.61463068,36.5915786 2.73941477,36.5753464 2.86689205,
          36.5654268 C12.1951761,35.8764625 20.3276875,43.1178018 21.0324034,
          52.7389536 C21.7362216,62.3610071 14.7456193,70.7187571 5.41733523,
          71.4077214 C5.28985795,71.4176411 5.16417614,71.4194446 5.03759659,
          71.4257571 L6.49011932,91.2758643 C6.67505114,93.7945518 8.80446023,
          95.6901054 11.2462784,95.5097482 L135.680256,86.31965 C138.122972,
          86.1392929 139.953438,83.9506589 139.768506,81.4310696 L138.268403,
          60.9406946 C138.142722,60.9524179 138.017938,60.96865 137.89046,
          60.9785696 C128.562176,61.6675339 120.429665,54.4261946 119.724949,
          44.8050429 C119.021131,35.1838911 126.011733,26.8252393 135.340017,
          26.136275 Z" id="Stroke-3" stroke="#D9DADB" stroke-width="1.8">
          </path>
          <path d="M146.251713,43.1569393 C146.372008,43.1578411 146.490508,
          43.1650554 146.609008,43.1677607 L146.723019,23.2004214 C146.736485,
          20.8846357 144.87819,18.9962964 142.572826,18.9836714 L25.1123943,
          18.3091357 C22.8070307,18.2956089 20.9271898,20.1623054 20.9137239,
          22.4780911 L20.7970193,43.0351982 C20.916417,43.0333946 21.034917,
          43.0270821 21.1552125,43.0279839 C29.9601216,43.0784839 37.0575534,
          50.2900643 37.0072807,59.1356804 C36.957008,67.9803946 29.777883,
          75.1099125 20.9729739,75.0594125 C20.8526784,75.0585107 20.7341784,
          75.0512964 20.6147807,75.0485911 L20.5106443,93.296225 C20.4980761,
          95.6120107 22.3563716,97.50035 24.6617352,97.5138768 L142.122167,
          98.1884125 C144.427531,98.2010375 146.307372,96.3343411 146.31994,
          94.0185554 L146.427667,75.1811536 C146.308269,75.1829571 146.189769,
          75.1892696 146.069474,75.1883679 C137.264565,75.1378679 130.167133,
          67.9262875 130.217406,59.0806714 C130.267678,50.2359571 137.445906,
          43.1064393 146.251713,43.1569393" id="Fill-5" fill="#EFF1F2"></path>
          <path d="M156.892923,42.3025875 C157.018605,42.3034893 157.143389,
          42.3107036 157.268173,42.3143107 L157.38757,21.3703375 C157.401036,
          18.9409268 155.45207,16.9606054 153.033593,16.9461768 L29.8268091,
          16.2391768 C27.4092295,16.2247482 25.4378205,18.1834268 25.4234568,
          20.6119357 L25.3013659,42.1745339 C25.42615,42.1727304 25.5500364,
          42.1664179 25.6766159,42.1673196 C34.9124341,42.220525 42.3572864,
          49.7847036 42.3043205,59.062275 C42.2513545,68.3407482 34.7212182,
          75.8183554 25.4854,75.7660518 C25.3588205,75.76515 25.2349341,
          75.7579357 25.11015,75.7543286 L25.0006273,94.8947304 C24.9871614,
          97.3241411 26.9361273,99.3044625 29.3546045,99.3179893 L152.561389,
          100.025891 C154.978968,100.039418 156.950377,98.0816411 156.964741,
          95.6522304 L157.076957,75.8932036 C156.952173,75.8959089 156.827389,
          75.9013196 156.701707,75.9004179 C147.465889,75.8481143 140.021036,
          68.2839357 140.074002,59.0054625 C140.12607,49.7278911 147.657105,
          42.2493821 156.892923,42.3025875" id="Fill-7" fill="#FFFFFF"></path>
          <path d="M156.892923,42.3025875 C157.018605,42.3034893 157.143389,
          42.3107036 157.268173,42.3143107 L157.38757,21.3703375 C157.401036,
          18.9409268 155.45207,16.9606054 153.033593,16.9461768 L29.8268091,
          16.2391768 C27.4092295,16.2247482 25.4378205,18.1834268 25.4234568,
          20.6119357 L25.3013659,42.1745339 C25.42615,42.1727304 25.5500364,
          42.1664179 25.6766159,42.1673196 C34.9124341,42.220525 42.3572864,
          49.7847036 42.3043205,59.062275 C42.2513545,68.3407482 34.7212182,
          75.8183554 25.4854,75.7660518 C25.3588205,75.76515 25.2349341,
          75.7579357 25.11015,75.7543286 L25.0006273,94.8947304 C24.9871614,
          97.3241411 26.9361273,99.3044625 29.3546045,99.3179893 L152.561389,
          100.025891 C154.978968,100.039418 156.950377,98.0816411 156.964741,
          95.6522304 L157.076957,75.8932036 C156.952173,75.8959089 156.827389,
          75.9013196 156.701707,75.9004179 C147.465889,75.8481143 140.021036,
          68.2839357 140.074002,59.0054625 C140.12607,49.7278911 147.657105,
          42.2493821 156.892923,42.3025875 Z" id="Stroke-9" stroke="#C4C9CD"
          stroke-width="1.8"></path>
          <polyline id="Stroke-11" stroke="#DBDFE1" stroke-width="0.9"
            stroke-linecap="round" stroke-linejoin="round"
            points="150.743401 77.9293455 150.743401 92.4048098 31.644617
            92.4048098 31.644617 77.9293455"></polyline>
          <polyline id="Stroke-13" stroke="#DBDFE1" stroke-width="0.9"
            stroke-linecap="round" stroke-linejoin="round"
            points="31.6448864 40.2802429 31.6448864 23.8596268 150.74367
            23.8596268 150.74367 39.7536"></polyline>
        </g>
        <text id="NUTANIX-SUPPORT"
          font-family="ProximaNovaSoft-Semibold, Proxima Nova Soft"
          font-size="6.75" font-weight="500" fill="#C9C9C9"
          x="40.8117761" y="37.3115537">
          NUTANIX SUPPORT
        </text>
        <g id="Group-20" transform="translate(79.000000, 49.447616)">
          <path d="M24.1637659,12.7001187 C24.1637659,19.3408687 18.8052318,
            24.7236277 12.1943682,24.7236277 C5.58350455,24.7236277 0.224072727,
            19.3408687 0.224072727,12.7001187 C0.224072727,
            6.05936875 5.58350455,0.676609821 12.1943682,
            0.676609821 C18.8052318,0.676609821 24.1637659,
            6.05936875 24.1637659,12.7001187"
            id="Fill-16" fill="#C2D5A0"></path>
          <path d="M10.8100727,11.3099259 L8.03789091,11.3099259 C7.28469773,
          11.3099259 6.65808409,11.932158 6.65808409,12.7004795 C6.65808409,
          13.4733098 7.27572045,14.0901313 8.03789091,14.0901313 L10.8100727,
          14.0901313 L10.8100727,16.8748455 C10.8100727,17.6314437 11.4295045,
          18.2608902 12.1943682,18.2608902 C12.9637205,18.2608902 13.5777659,
          17.6404616 13.5777659,16.8748455 L13.5777659,14.0901313 L16.3499477,
          14.0901313 C17.1031409,14.0901313 17.7297545,13.4678991 17.7297545,
          12.7004795 C17.7297545,11.9267473 17.1121182,11.3099259 16.3499477,
          11.3099259 L13.5777659,11.3099259 L13.5777659,
          8.52521161 C13.5777659,7.76861339 12.9583341,7.13916696 12.1943682,
          7.13916696 C11.4241182,7.13916696 10.8100727,7.75959554 10.8100727,
          8.52521161 L10.8100727,11.3099259 Z"
          id="Fill-18" fill="#FFFFFF"></path>
        </g>
        <g id="Group-24" transform="translate(85.284091, 55.760116)">
          <mask id="mask-2" fill="white">
              <use xlink:href="#path-1"></use>
          </mask>
          <g id="Clip-22"></g>
          <polygon id="Fill-21" fill="#FFFFFF" mask="url(#mask-2)"
            points="-1807.125 437.366071 130.469398 437.366071 130.469398
            -257.760116 -1807.125 -257.760116"></polygon>
          <polygon id="Fill-23" fill="#FFFFFF" mask="url(#mask-2)"
            points="-6.54622727 18.899625 18.3657045 18.899625 18.3657045
            -6.12492857 -6.54622727 -6.12492857"></polygon>
        </g>
        <g id="Group-36" transform="translate(38.602273, 35.920830)">
          <polygon id="Fill-25" fill="#EBEBEB"
            points="88.6353068 1.87841964 102.819398 1.87841964 102.819398
            1.32201786 88.6353068 1.32201786"></polygon>
          <polygon id="Fill-27" fill="#EBEBEB"
            points="88.5177045 2.63141071 89.0859659 2.63141071 89.0859659
          0.598785714 88.5177045 0.598785714"></polygon>
          <polygon id="Fill-28" fill="#EBEBEB"
            points="65.2943977 47.8694911 102.819398 47.8694911 102.819398
            47.3130893 65.2943977 47.3130893"></polygon>
          <polygon id="Fill-29" fill="#EBEBEB"
            points="65.1767955 48.6224821 65.7450568 48.6224821 65.7450568
            46.5898571 65.1767955 46.5898571"></polygon>
          <polygon id="Fill-30" fill="#EBEBEB"
            points="0.540431818 47.9001518 38.0654318 47.9001518 38.0654318
            47.34375 0.540431818 47.34375"></polygon>
          <polygon id="Fill-31" fill="#EBEBEB"
            points="37.6147727 48.6233839 38.1830341 48.6233839 38.1830341
            46.5907589 37.6147727 46.5907589"></polygon>
          <polygon id="Fill-32" fill="#EBEBEB"
            points="1.43815909 1.90908036 15.62225 1.90908036 15.62225
            1.35267857 1.43815909 1.35267857"></polygon>
          <polygon id="Fill-33" fill="#EBEBEB"
            points="15.1715909 2.6323125 15.7398523 2.6323125 15.7398523
            0.5996875 15.1715909 0.5996875"></polygon>
          <path d="M44.8490182,49.748542 C44.8490182,49.748542 45.5223136,
            46.8177384 48.6643591,47.4940777 C48.6643591,47.4940777 55.1728818,
            49.9739884 57.1927682,49.5230955 C57.1927682,49.5230955 60.3348136,
            48.8467562 60.3348136,46.8177384"
            id="Stroke-34" stroke="#EBEBEB" stroke-width="0.585"
            stroke-linecap="round" stroke-linejoin="round"></path>
          <path d="M45.8963068,48.0200893 C45.8963068,48.0200893 47.93325,
            45.4932857 50.6955568,45.9396696 C54.2747955,46.5168125 56.9976023,
            49.2068393 58.7634318,48.8470268"
            id="Stroke-35" stroke="#EBEBEB" stroke-width="0.585"
            stroke-linecap="round" stroke-linejoin="round"></path>
        </g>
      </g>
    </g>
  </g>
</svg>