<svg width="160px" height="160px" viewBox="0 0 160 160" version="1.1" xmlns="http://www.w3.org/2000/svg" xmlns:xlink="http://www.w3.org/1999/xlink">
  <path d="M0,0 L160,0 L160,160 L0,160 L0,0 Z M80,160 C124.18278,160 160,124.18278 160,80 C160,35.81722 124.18278,0 80,0 C35.81722,0 0,35.81722 0,80 C0,124.18278 35.81722,160 80,160 Z M113.155184,85.772 C113.107673,85.812898 113.045959,85.8349388 112.982776,85.8349388 L109.615429,85.8349388 C109.508898,85.8349388 109.405061,85.7786122 109.361224,85.6813878 C109.310531,85.5694694 109.339918,85.4389388 109.43151,85.3632653 L115.57649,80.1880816 C115.713388,80.0724898 115.713878,79.8616327 115.577224,79.7457959 L109.440816,74.5355918 C109.366367,74.4721633 109.32302,74.3751837 109.339918,74.2789388 C109.362939,74.146449 109.476571,74.0560816 109.604898,74.0560816 L112.845388,74.0560816 C112.907592,74.0560816 112.968082,74.0781224 113.017796,74.1187755 L119.70498,79.7440816 L119.765469,79.7957551 C119.868327,79.8834286 119.87102,80.0413878 119.771347,80.1327347 L119.705224,80.1932245 L113.155184,85.772 Z M47.4931429,74.1383673 L45.438449,74.1383673 C45.1920816,74.1383673 44.9902857,74.3401633 44.9902857,74.5867755 L44.9902857,81.2279184 C44.9902857,81.3839184 44.8066122,81.4676735 44.6888163,81.3650612 L37.0837551,74.7442449 C36.5653061,74.2931429 36.0017959,74.0634286 35.4071837,74.0634286 C34.8823673,74.0634286 34,74.2777143 34,75.7108571 L34,85.3189388 C34,85.5665306 34.2005714,85.767102 34.4481633,85.767102 L36.5016327,85.767102 C36.7489796,85.767102 36.949551,85.5665306 36.949551,85.3191837 L36.949551,78.6503673 C36.949551,78.4941224 37.1334694,78.4106122 37.2512653,78.5134694 L44.9366531,85.234449 C45.4129796,85.6571429 45.9309388,85.8714286 46.4763265,85.8714286 C47.0234286,85.8714286 47.9408163,85.6475918 47.9408163,84.1485714 L47.9408163,74.5862857 C47.9408163,74.3399184 47.7392653,74.1383673 47.4931429,74.1383673 Z M62.5232653,74.1383673 L60.1350204,74.1383673 C59.9890612,74.1383673 59.8690612,74.2573878 59.8690612,74.4043265 L59.8690612,82.1820408 C59.8690612,82.8226939 59.0736327,83.1476735 57.5035918,83.1476735 L54.2555102,83.1476735 C52.6560816,83.1476735 51.844,82.8226939 51.844,82.1820408 L51.844,74.4043265 C51.844,74.2573878 51.7249796,74.1383673 51.5777959,74.1383673 L49.1601633,74.1383673 C49.0127347,74.1383673 48.8934694,74.2573878 48.8934694,74.4043265 L48.8934694,82.301551 C48.8934694,82.8493878 48.9862857,83.3220408 49.1665306,83.7070204 C49.3460408,84.0875918 49.590449,84.4150204 49.8938776,84.6802449 C50.1909388,84.9393469 50.5399184,85.1453061 50.9288163,85.2910204 C51.3062041,85.4337959 51.7039184,85.5410612 52.1087347,85.6118367 C52.5115918,85.6845714 52.9308571,85.7281633 53.3550204,85.7443265 C53.7681633,85.7595102 54.1565714,85.767102 54.5204898,85.767102 L57.1634286,85.767102 C59.1035102,85.767102 60.4842449,85.4986939 61.3857143,84.9474286 C62.3173061,84.3773061 62.7899592,83.4878367 62.7899592,82.301551 L62.7899592,74.4043265 C62.7899592,74.2573878 62.6699592,74.1383673 62.5232653,74.1383673 Z M76.4861224,76.1908571 L76.4861224,74.6602449 C76.4861224,74.3639184 76.2461224,74.1239184 75.9497959,74.1239184 L64.268898,74.1239184 C63.9725714,74.1239184 63.7323265,74.3641633 63.7323265,74.6604898 L63.7323265,76.1908571 C63.7323265,76.4871837 63.9725714,76.7276735 64.2691429,76.7276735 L68.3552653,76.7276735 C68.5046531,76.7276735 68.6258776,76.8486531 68.6258776,76.9980408 L68.6258776,85.2305306 C68.6258776,85.5268571 68.8661224,85.767102 69.162449,85.767102 L71.0395918,85.767102 C71.3361633,85.767102 71.5766531,85.5266122 71.5766531,85.2302857 L71.5766531,76.9980408 C71.5766531,76.8486531 71.6976327,76.7276735 71.8470204,76.7276735 L75.9493061,76.7276735 C76.2458776,76.7276735 76.4861224,76.4874286 76.4861224,76.1908571 Z M104.095673,74.1383673 L101.984408,74.1383673 C101.75298,74.1383673 101.565143,74.3262041 101.565143,74.5578776 L101.565143,81.2903673 C101.565143,81.4221224 101.410122,81.4926531 101.310694,81.4062041 L93.6588571,74.7442449 C93.1406531,74.2931429 92.5761633,74.0634286 91.9808163,74.0634286 C91.456,74.0634286 90.5741224,74.2777143 90.5741224,75.7108571 L90.5741224,85.3473469 C90.5741224,85.5782857 90.7629388,85.767102 90.9938776,85.767102 L93.1044082,85.767102 C93.3363265,85.767102 93.5244082,85.5790204 93.5244082,85.347102 L93.5244082,78.5876735 C93.5244082,78.4556735 93.6796735,78.3853878 93.779102,78.4720816 L101.51151,85.234449 C101.987347,85.6571429 102.505796,85.8714286 103.051184,85.8714286 C103.597796,85.8714286 104.515673,85.6475918 104.515673,84.1485714 L104.515673,74.5583673 C104.515673,74.326449 104.327592,74.1383673 104.095673,74.1383673 Z M108.138939,74.1383673 L105.722286,74.1383673 C105.575102,74.1383673 105.456082,74.2573878 105.456082,74.4043265 L105.456082,85.500898 C105.456082,85.6475918 105.575102,85.767102 105.722286,85.767102 L108.138939,85.767102 C108.285878,85.767102 108.405633,85.6475918 108.405633,85.500898 L108.405633,74.4043265 C108.405633,74.2573878 108.285878,74.1383673 108.138939,74.1383673 Z M120.737469,78.9929796 C120.844735,79.0843265 121.002694,79.0843265 121.109959,78.9932245 L126.473714,74.5355918 C126.548163,74.4721633 126.591265,74.3751837 126.574612,74.2789388 C126.551592,74.146449 126.437714,74.0560816 126.309633,74.0560816 L123.069143,74.0560816 C123.006939,74.0560816 122.946449,74.0781224 122.896735,74.1187755 L119.132898,77.187102 C118.996735,77.3017143 118.996245,77.511102 119.131673,77.626449 L120.737469,78.9929796 Z M120.719347,80.9418776 C120.826857,80.8505306 120.984571,80.8502857 121.092082,80.9416327 L126.535673,85.3875102 C126.610122,85.4506939 126.653224,85.5479184 126.636571,85.6441633 C126.613551,85.7764082 126.499673,85.8670204 126.371592,85.8670204 L123.130857,85.8670204 C123.068898,85.8670204 123.008408,85.8449796 122.958694,85.8043265 L119.218367,82.6899592 C119.082204,82.5753469 119.081714,82.3659592 119.217143,82.2506122 L120.719347,80.9418776 Z M82.8402449,74.9252245 C82.4378776,74.3634286 81.9052245,74.0781224 81.2569796,74.0781224 C80.617551,74.0781224 80.0900408,74.3688163 79.6866939,74.9438367 L72.4813061,85.3483265 C72.4124898,85.4472653 72.4173878,85.5819592 72.5006531,85.6769796 C72.5547755,85.738449 72.6373061,85.767102 72.719102,85.767102 L75.5515918,85.767102 C75.6417143,85.767102 75.726449,85.7210612 75.7754286,85.6453878 L77.5849796,82.8613878 C77.6246531,82.8004082 77.6922449,82.7636735 77.7649796,82.7636735 C77.7649796,82.7636735 83.7980408,82.7622041 84.7112653,82.7634286 C84.7837551,82.7634286 84.8506122,82.7996735 84.8905306,82.8601633 L86.7409796,85.6475918 C86.7899592,85.7222857 86.8734694,85.767102 86.9628571,85.767102 L89.6812245,85.767102 C89.7789388,85.767102 89.8697959,85.7127347 89.9155918,85.6248163 C89.9621224,85.5378776 89.9564898,85.4328163 89.9013878,85.3512653 L82.8402449,74.9252245 Z M79.5475918,79.9240816 L81.0439184,77.7733878 C81.1122449,77.6746939 81.2579592,77.6742041 81.3272653,77.7721633 L82.8414694,79.9076735 C82.912,80.0068571 82.8409796,80.1442449 82.7192653,80.1442449 L79.6626939,80.1442449 C79.549551,80.1442449 79.4829388,80.016898 79.5475918,79.9240816 Z" id="Combined-Shape" stroke="none" fill-rule="evenodd"></path>
</svg>