<?xml version="1.0" encoding="utf-8"?>
<!-- Generator: Adobe Illustrator 18.1.1, SVG Export Plug-In . SVG Version: 6.00 Build 0)  -->
<!DOCTYPE svg PUBLIC "-//W3C//DTD SVG 1.1//EN" "http://www.w3.org/Graphics/SVG/1.1/DTD/svg11.dtd">
<svg version="1.1" xmlns="http://www.w3.org/2000/svg" xmlns:xlink="http://www.w3.org/1999/xlink" x="0px" y="0px"
	 viewBox="974 1068 504 344" enable-background="new 974 1068 504 344" xml:space="preserve">
<path fill="#FFFFFF" d="M1270.6,1129.5c0.3,0,0.5-0.2,0.5-0.5s-0.2-0.5-0.5-0.5s-0.5,0.2-0.5,0.5
	S1270.3,1129.5,1270.6,1129.5z M1288.4,1168c0.5,0,1-0.4,1-1c0-0.5-0.4-1-1-1s-1,0.4-1,1C1287.4,1167.6,1287.8,1168,1288.4,1168z
	 M1141.3,1161.3c0.5,0,1-0.4,1-1c0-0.5-0.4-1-1-1c-0.5,0-1,0.4-1,1C1140.3,1160.8,1140.8,1161.3,1141.3,1161.3z M1208.6,1190.1
	c0.5,0,1-0.4,1-1c0-0.5-0.4-1-1-1s-1,0.4-1,1C1207.6,1189.7,1208.1,1190.1,1208.6,1190.1z M1356.6,1109.3c0.5,0,1-0.4,1-1
	c0-0.5-0.4-1-1-1s-1,0.4-1,1C1355.7,1108.9,1356.1,1109.3,1356.6,1109.3z M1385.5,1097.8c0.5,0,1-0.4,1-1c0-0.5-0.4-1-1-1
	s-1,0.4-1,1C1384.5,1097.4,1385,1097.8,1385.5,1097.8z M1382.1,1084.3c0.3,0,0.5-0.2,0.5-0.5c0-0.3-0.2-0.5-0.5-0.5
	c-0.3,0-0.5,0.2-0.5,0.5C1381.6,1084.1,1381.9,1084.3,1382.1,1084.3z M1434,1069c0.3,0,0.5-0.2,0.5-0.5s-0.2-0.5-0.5-0.5
	s-0.5,0.2-0.5,0.5S1433.8,1069,1434,1069z M1412.9,1359.3c0.3,0,0.5-0.2,0.5-0.5s-0.2-0.5-0.5-0.5c-0.3,0-0.5,0.2-0.5,0.5
	S1412.6,1359.3,1412.9,1359.3z M1441.2,1132.4c0.5,0,1-0.4,1-1s-0.4-1-1-1s-1,0.4-1,1S1440.7,1132.4,1441.2,1132.4z M1384.5,1146.8
	c0.5,0,1-0.4,1-1c0-0.5-0.4-1-1-1s-1,0.4-1,1C1383.6,1146.4,1384,1146.8,1384.5,1146.8z M1406.2,1173.8c0.3,0,0.5-0.2,0.5-0.5
	s-0.2-0.5-0.5-0.5c-0.3,0-0.5,0.2-0.5,0.5S1405.9,1173.8,1406.2,1173.8z M1365.8,1203.6c0.3,0,0.5-0.2,0.5-0.5s-0.2-0.5-0.5-0.5
	s-0.5,0.2-0.5,0.5S1365.5,1203.6,1365.8,1203.6z M1323,1262.2c0.5,0,1-0.4,1-1c0-0.5-0.4-1-1-1s-1,0.4-1,1
	C1322,1261.8,1322.5,1262.2,1323,1262.2z M1310,1326.6c0.3,0,0.5-0.2,0.5-0.5s-0.2-0.5-0.5-0.5c-0.3,0-0.5,0.2-0.5,0.5
	S1309.7,1326.6,1310,1326.6z M1330.2,1326.6c0.3,0,0.5-0.2,0.5-0.5s-0.2-0.5-0.5-0.5c-0.3,0-0.5,0.2-0.5,0.5
	S1329.9,1326.6,1330.2,1326.6z M1157.6,1390.1c0.5,0,1-0.4,1-1s-0.4-1-1-1s-1,0.4-1,1S1157.1,1390.1,1157.6,1390.1z M1176.4,1377.6
	c0.3,0,0.5-0.2,0.5-0.5s-0.2-0.5-0.5-0.5s-0.5,0.2-0.5,0.5S1176.1,1377.6,1176.4,1377.6z M1109.1,1361.2c0.3,0,0.5-0.2,0.5-0.5
	s-0.2-0.5-0.5-0.5c-0.3,0-0.5,0.2-0.5,0.5S1108.8,1361.2,1109.1,1361.2z M1177.8,1382.4c0.5,0,1-0.4,1-1c0-0.5-0.4-1-1-1s-1,0.4-1,1
	C1176.9,1381.9,1177.3,1382.4,1177.8,1382.4z M1225.9,1282.4c0.5,0,1-0.4,1-1c0-0.5-0.4-1-1-1s-1,0.4-1,1
	C1224.9,1282,1225.4,1282.4,1225.9,1282.4z M1215.3,1339.1c0.5,0,1-0.4,1-1c0-0.5-0.4-1-1-1s-1,0.4-1,1
	C1214.4,1338.7,1214.8,1339.1,1215.3,1339.1z M1312.4,1339.1c0.5,0,1-0.4,1-1c0-0.5-0.4-1-1-1s-1,0.4-1,1
	C1311.5,1338.7,1311.9,1339.1,1312.4,1339.1z M1115.8,1136.3c0.3,0,0.5-0.2,0.5-0.5s-0.2-0.5-0.5-0.5c-0.3,0-0.5,0.2-0.5,0.5
	S1115.5,1136.3,1115.8,1136.3z M1130.7,1107.4c0.5,0,1-0.4,1-1s-0.4-1-1-1s-1,0.4-1,1S1130.2,1107.4,1130.7,1107.4z M1019.2,1200.7
	c0.5,0,1-0.4,1-1s-0.4-1-1-1c-0.5,0-1,0.4-1,1S1018.7,1200.7,1019.2,1200.7z M1035.5,1239.1c0.5,0,1-0.4,1-1s-0.4-1-1-1s-1,0.4-1,1
	S1035,1239.1,1035.5,1239.1z M974.5,1168.9c0.3,0,0.5-0.2,0.5-0.5s-0.2-0.5-0.5-0.5s-0.5,0.2-0.5,0.5S974.2,1168.9,974.5,1168.9z"/>
<path fill="#FFFFFF" d="M1435,1158.4c0.8,0,1.4-0.6,1.4-1.4c0-0.8-0.6-1.4-1.4-1.4c-0.8,0-1.4,0.6-1.4,1.4
	C1433.6,1157.7,1434.2,1158.4,1435,1158.4z M1305.2,1160.3c0.8,0,1.4-0.6,1.4-1.4c0-0.8-0.6-1.4-1.4-1.4c-0.8,0-1.4,0.6-1.4,1.4
	C1303.8,1159.6,1304.4,1160.3,1305.2,1160.3z M1164.8,1178.6c0.8,0,1.4-0.6,1.4-1.4c0-0.8-0.6-1.4-1.4-1.4c-0.8,0-1.4,0.6-1.4,1.4
	C1163.4,1177.9,1164,1178.6,1164.8,1178.6z M1037,1263.2c0.8,0,1.4-0.6,1.4-1.4c0-0.8-0.6-1.4-1.4-1.4s-1.4,0.6-1.4,1.4
	C1035.5,1262.5,1036.2,1263.2,1037,1263.2z M1430.2,1084.3c0.8,0,1.4-0.6,1.4-1.4c0-0.8-0.6-1.4-1.4-1.4c-0.8,0-1.4,0.6-1.4,1.4
	C1428.7,1083.7,1429.4,1084.3,1430.2,1084.3z M1419.6,1347.8c0.8,0,1.4-0.6,1.4-1.4c0-0.8-0.6-1.4-1.4-1.4c-0.8,0-1.4,0.6-1.4,1.4
	C1418.2,1347.1,1418.8,1347.8,1419.6,1347.8z M1091.8,1399.7"/>
<g transform="translate(6.000000, -1.000000)" opacity="5.000000e-02">
	<line fill="none" stroke="#FFFFFF" stroke-miterlimit="10" x1="1424.3" y1="1083.6" x2="1428.8" y2="1158.5"/>
	<line fill="none" stroke="#FFFFFF" stroke-miterlimit="10" x1="1086.7" y1="1401.2" x2="1047" y2="1399.9"/>
</g>
</svg>
