<?xml version="1.0" encoding="UTF-8"?>
<svg id="pc-glass-icon" width="93px" height="93px" viewBox="0 0 93 93" version="1.1" xmlns="http://www.w3.org/2000/svg" xmlns:xlink="http://www.w3.org/1999/xlink">
    <!-- Generator: Sketch 43.2 (39069) - http://www.bohemiancoding.com/sketch -->
    <title>H</title>
    <desc>Created with Sketch.</desc>
    <defs></defs>
    <g id="Page-1" stroke="none" stroke-width="1" fill="none" fill-rule="evenodd">
        <g id="H">
            <g id="Page-1">
                <path d="M93,46.5 C93,20.8185847 72.1816403,0 46.5005027,0 C20.819365,0 -7.10542736e-14,20.8185847 -7.10542736e-14,46.5 C-7.10542736e-14,72.1814153 20.819365,93 46.5005027,93 C72.1816403,93 93,72.1814153 93,46.5" id="Fill-1" fill="#FBFBFB"></path>
                <path d="M34.5399,59.9851 C33.9909,61.7531 32.1139,62.7411 30.3469,62.1931 C28.5789,61.6451 27.5909,59.7671 28.1389,58.0001 C28.6869,56.2331 30.5639,55.2441 32.3319,55.7921 C34.0999,56.3401 35.0879,58.2171 34.5399,59.9851" id="Fill-4" fill="#FFFFFF"></path>
                <path d="M34.5399,59.9851 C33.9909,61.7531 32.1139,62.7411 30.3469,62.1931 C28.5789,61.6451 27.5909,59.7671 28.1389,58.0001 C28.6859,56.2321 30.5639,55.2441 32.3319,55.7921 C34.0999,56.3401 35.0879,58.2171 34.5399,59.9851 Z" id="Stroke-6" stroke="#DFDFDF" stroke-width="1.4" stroke-linecap="round" stroke-linejoin="round" stroke-dasharray="0.501,3.003"></path>
                <path d="M58.4285,41.2356 C56.3165,48.0466 49.0825,51.8556 42.2725,49.7436 C35.4605,47.6316 31.6525,40.3976 33.7645,33.5866 C35.8755,26.7756 43.1105,22.9656 49.9205,25.0786 C56.7325,27.1906 60.5405,34.4246 58.4285,41.2356" id="Fill-8" fill="#F9F9F9"></path>
                <path d="M58.4285,41.2356 C56.3165,48.0466 49.0825,51.8556 42.2725,49.7436 C35.4605,47.6316 31.6525,40.3976 33.7645,33.5866 C35.8755,26.7756 43.1105,22.9656 49.9205,25.0786 C56.7325,27.1906 60.5405,34.4246 58.4285,41.2356 Z" id="Stroke-10" stroke="#F1F1F1" stroke-width="1.147" stroke-linecap="round" stroke-linejoin="round" stroke-dasharray="0.507,3.043"></path>
                <path d="M46.0926,24.4953 C40.5846,24.4963 35.4816,28.0493 33.7646,33.5863 C31.6516,40.3973 35.4606,47.6313 42.2726,49.7433 C43.5456,50.1393 44.8326,50.3263 46.1006,50.3263 C51.6086,50.3263 56.7116,46.7733 58.4286,41.2353 C60.5416,34.4243 56.7326,27.1903 49.9206,25.0783 C48.6476,24.6833 47.3596,24.4953 46.0926,24.4953 M46.0926,27.3223 L46.0926,27.3223 C47.1026,27.3223 48.1086,27.4753 49.0836,27.7783 C54.3956,29.4263 57.3756,35.0873 55.7296,40.3983 C54.4116,44.6453 50.5416,47.4993 46.1006,47.4993 C45.0916,47.4993 44.0846,47.3463 43.1096,47.0433 C37.7976,45.3963 34.8176,39.7353 36.4636,34.4243 C37.7806,30.1773 41.6516,27.3233 46.0926,27.3223" id="Fill-12" fill="#FFFFFF"></path>
                <path d="M51.91,39.2141 C50.914,42.4241 47.505,44.2201 44.294,43.2251 C41.083,42.2291 39.287,38.8191 40.283,35.6081 C41.279,32.3971 44.688,30.6021 47.899,31.5971 C51.11,32.5931 52.906,36.0031 51.91,39.2141" id="Fill-14" fill="#FFFFFF"></path>
                <path d="M51.91,39.2141 C50.914,42.4241 47.505,44.2201 44.294,43.2251 C41.083,42.2291 39.287,38.8191 40.283,35.6081 C41.279,32.3971 44.688,30.6021 47.899,31.5971 C51.11,32.5931 52.906,36.0031 51.91,39.2141 Z" id="Stroke-16" stroke="#DFDFDF" stroke-width="1.4" stroke-linecap="round" stroke-linejoin="round" stroke-dasharray="0.507,3.043"></path>
                <path d="M51.91,39.2141 C50.914,42.4241 47.505,44.2201 44.294,43.2251 C41.083,42.2291 39.287,38.8191 40.283,35.6081 C41.279,32.3971 44.688,30.6021 47.899,31.5971 C51.11,32.5931 52.906,36.0031 51.91,39.2141 Z" id="Stroke-18" stroke="#DFDFDF" stroke-width="1.4" stroke-linecap="round" stroke-linejoin="round" stroke-dasharray="0.507,3.043"></path>
                <path d="M57.3094,53.1994 L52.7694,55.5904 L59.6744,68.7034 C60.1894,69.6804 61.3994,70.0554 62.3764,69.5414 L63.3764,69.0144 C64.3544,68.4994 64.7294,67.2904 64.2144,66.3134 L57.3094,53.1994 Z" id="Fill-20" fill="#FFFFFF"></path>
                <path d="M57.3094,53.1994 L52.7694,55.5904 L59.6744,68.7034 C60.1894,69.6804 61.3994,70.0554 62.3764,69.5414 L63.3764,69.0144 C64.3544,68.4994 64.7294,67.2904 64.2144,66.3134 L57.3094,53.1994 Z" id="Stroke-22" stroke="#DFDFDF" stroke-width="1.4" stroke-linecap="round"></path>
                <path d="M55.0399,54.3948 L52.5929,49.7488" id="Stroke-24" stroke="#DFDFDF" stroke-width="1.4" stroke-linecap="round"></path>
                <path d="M41.0506,45.8728 C40.9476,45.8728 40.8446,45.8418 40.7536,45.7778 C40.5236,45.6128 40.4696,45.2928 40.6346,45.0618 L40.7656,44.8778 C40.9306,44.6468 41.2486,44.5928 41.4816,44.7588 C41.7116,44.9228 41.7656,45.2438 41.6006,45.4738 L41.4686,45.6578 C41.3676,45.7988 41.2106,45.8728 41.0506,45.8728" id="Fill-26" fill="#DFDFDF"></path>
                <path d="M36.7693,51.8659 C36.6653,51.8659 36.5623,51.8349 36.4713,51.7709 C36.2413,51.6059 36.1883,51.2859 36.3523,51.0549 L36.6583,50.6269 C36.8223,50.3969 37.1413,50.3429 37.3733,50.5069 C37.6033,50.6719 37.6573,50.9909 37.4933,51.2219 L37.1873,51.6509 C37.0873,51.7909 36.9293,51.8659 36.7693,51.8659" id="Fill-28" fill="#DFDFDF"></path>
                <path d="M34.8016,54.6184 C34.6986,54.6184 34.5956,54.5874 34.5046,54.5234 C34.2746,54.3584 34.2206,54.0384 34.3856,53.8084 L34.5176,53.6234 C34.6806,53.3934 34.9996,53.3394 35.2326,53.5034 C35.4626,53.6674 35.5166,53.9884 35.3516,54.2184 L35.2196,54.4034 C35.1196,54.5434 34.9626,54.6184 34.8016,54.6184" id="Fill-30" fill="#DFDFDF"></path>
                <path d="M58.4285,41.2356 C56.3165,48.0466 49.0825,51.8556 42.2725,49.7436 C35.4605,47.6316 31.6525,40.3976 33.7645,33.5866 C35.8755,26.7756 43.1105,22.9656 49.9205,25.0786 C56.7325,27.1906 60.5405,34.4246 58.4285,41.2356 Z" id="Stroke-32" stroke="#DFDFDF" stroke-width="1.4" stroke-linecap="round"></path>
            </g>
        </g>
    </g>
</svg>
