<svg xmlns="http://www.w3.org/2000/svg" viewBox="178 9 12 12" class="search-icon"  version="1.1">
<path d="M183.253059,11.2464501 C181.590798,11.2464501 180.245717,12.59197 180.245717,14.2469398 C180.245717,15.9077852 181.590798,17.253305 183.253059,17.253305 C184.909447,17.253305 186.254528,15.9077852 186.254528,14.2469398 C186.254528,12.59197 184.909447,11.2464501 183.253059,11.2464501 M189.653451,20.6533377 C189.191385,21.1155541 188.443465,21.1155541 187.979442,20.6533377 L186.031326,18.7045863 C185.22467,19.2079321 184.27117,19.4997552 183.247186,19.4997552 C180.351444,19.4997552 178,17.1475437 178,14.2469398 C178,11.3522115 180.351444,9 183.247186,9 C186.148801,9 188.500245,11.3522115 188.500245,14.2469398 C188.500245,15.2712584 188.208517,16.2250694 187.705335,17.0319896 L189.653451,18.980741 C190.115516,19.4429574 190.115516,20.1911213 189.653451,20.6533377" fill="#6f787e"></path>
</svg>
